<svg width="73" height="73" viewBox="0 0 73 73" fill="none" xmlns="http://www.w3.org/2000/svg">
<g clip-path="url(#clip0)">
<path d="M65.3958 63.875H7.60418C6.76468 63.875 6.08334 63.1937 6.08334 62.3542C6.08334 61.5147 6.76468 60.8333 7.60418 60.8333H65.3958C66.2353 60.8333 66.9167 61.5147 66.9167 62.3542C66.9167 63.1937 66.2353 63.875 65.3958 63.875Z" fill="#3F87FC"/>
<path d="M65.3958 30.4167H7.60418C6.76468 30.4167 6.08334 29.7353 6.08334 28.8958C6.08334 28.0563 6.76468 27.375 7.60418 27.375H65.3958C66.2353 27.375 66.9167 28.0563 66.9167 28.8958C66.9167 29.7353 66.2353 30.4167 65.3958 30.4167Z" fill="#3F87FC"/>
<path d="M59.3125 63.875H38.0208C37.1813 63.875 36.5 63.1937 36.5 62.3542V41.0625C36.5 40.223 37.1813 39.5417 38.0208 39.5417H59.3125C60.152 39.5417 60.8333 40.223 60.8333 41.0625V62.3542C60.8333 63.1937 60.152 63.875 59.3125 63.875ZM39.5417 60.8333H57.7917V42.5833H39.5417V60.8333Z" fill="#3F87FC"/>
<path d="M48.6666 51.7083C47.8271 51.7083 47.1458 51.027 47.1458 50.1875V41.0625C47.1458 40.223 47.8271 39.5417 48.6666 39.5417C49.5061 39.5417 50.1875 40.223 50.1875 41.0625V50.1875C50.1875 51.027 49.5061 51.7083 48.6666 51.7083Z" fill="#3F87FC"/>
<path d="M38.0209 30.4167H16.7292C15.8897 30.4167 15.2083 29.7353 15.2083 28.8958V7.60418C15.2083 6.76468 15.8897 6.08334 16.7292 6.08334H38.0209C38.8604 6.08334 39.5417 6.76468 39.5417 7.60418V28.8958C39.5417 29.7353 38.8604 30.4167 38.0209 30.4167ZM18.25 27.375H36.5V9.12501H18.25V27.375Z" fill="#3F87FC"/>
<path d="M27.375 18.25C26.5355 18.25 25.8542 17.5687 25.8542 16.7292V7.60418C25.8542 6.76468 26.5355 6.08334 27.375 6.08334C28.2145 6.08334 28.8959 6.76468 28.8959 7.60418V16.7292C28.8959 17.5687 28.2145 18.25 27.375 18.25Z" fill="#3F87FC"/>
<path d="M31.9375 63.875H13.6875C12.848 63.875 12.1667 63.1937 12.1667 62.3542V44.1042C12.1667 43.2647 12.848 42.5833 13.6875 42.5833H31.9375C32.777 42.5833 33.4584 43.2647 33.4584 44.1042V62.3542C33.4584 63.1937 32.777 63.875 31.9375 63.875ZM15.2084 60.8333H30.4167V45.625H15.2084V60.8333Z" fill="#3F87FC"/>
<path d="M22.8125 51.7083C21.973 51.7083 21.2917 51.027 21.2917 50.1875V44.1042C21.2917 43.2647 21.973 42.5833 22.8125 42.5833C23.652 42.5833 24.3334 43.2647 24.3334 44.1042V50.1875C24.3334 51.027 23.652 51.7083 22.8125 51.7083Z" fill="#3F87FC"/>
<path d="M7.60417 73H1.52083C0.681333 73 0 72.3187 0 71.4792V1.52083C0 0.681333 0.681333 0 1.52083 0H7.60417C8.44367 0 9.125 0.681333 9.125 1.52083V71.4792C9.125 72.3187 8.44367 73 7.60417 73ZM3.04167 69.9583H6.08333V3.04167H3.04167V69.9583Z" fill="#3F87FC"/>
<path d="M71.4792 73H65.3958C64.5563 73 63.875 72.3187 63.875 71.4792V1.52083C63.875 0.681333 64.5563 0 65.3958 0H71.4792C72.3187 0 73 0.681333 73 1.52083V71.4792C73 72.3187 72.3187 73 71.4792 73ZM66.9167 69.9583H69.9583V3.04167H66.9167V69.9583Z" fill="#3F87FC"/>
</g>
<defs>
<clipPath id="clip0">
<rect width="73" height="73" fill="white"/>
</clipPath>
</defs>
</svg>
