<svg width="68" height="81" viewBox="0 0 68 81" fill="none" xmlns="http://www.w3.org/2000/svg">
<path fill-rule="evenodd" clip-rule="evenodd" d="M19.2825 12.815C19.2825 9.24938 16.3813 6.34814 12.815 6.34814C9.24937 6.34814 6.34814 9.24938 6.34814 12.815C6.34814 16.3813 9.24937 19.2819 12.815 19.2819C16.3813 19.2825 19.2825 16.3813 19.2825 12.815ZM9.49791 12.815C9.49791 10.9861 10.9861 9.49792 12.815 9.49792C14.6446 9.49792 16.1327 10.9861 16.1327 12.815C16.1327 14.644 14.6446 16.1321 12.815 16.1321C10.9861 16.1327 9.49791 14.644 9.49791 12.815Z" fill="#3F87FC"/>
<path fill-rule="evenodd" clip-rule="evenodd" d="M56.2806 41.2626C52.2222 41.2626 48.7729 42.274 46.688 43.8809L41.0399 42.6234C40.1928 42.4346 39.35 42.9692 39.1605 43.8181C38.9717 44.6671 39.5063 45.5087 40.3558 45.6975L44.6849 46.6615C44.6043 46.9759 44.5613 47.2995 44.5613 47.6298C44.5613 49.7695 46.3127 51.5978 49.118 52.7396L46.5963 55.3339C45.9904 55.9577 46.0045 56.9549 46.6283 57.5608C46.9341 57.8586 47.3302 58.0062 47.7258 58.0062C48.1361 58.0062 48.5465 57.8469 48.8553 57.5295L52.5809 53.6962C53.735 53.8912 54.9758 53.997 56.2806 53.997C62.9616 53.997 68 51.2595 68 47.6298C68 44.0002 62.9616 41.2626 56.2806 41.2626ZM56.2806 50.8473C51.129 50.8473 47.711 48.9107 47.711 47.6298C47.711 47.3616 47.8624 47.0651 48.146 46.7636C48.1946 46.7212 48.2407 46.6763 48.2832 46.6271C49.4588 45.529 52.3686 44.4124 56.2806 44.4124C61.4322 44.4124 64.8502 46.349 64.8502 47.6298C64.8502 48.9107 61.4322 50.8473 56.2806 50.8473Z" fill="#3F87FC"/>
<path fill-rule="evenodd" clip-rule="evenodd" d="M37.553 69.1578L40.0747 66.5629C40.6807 65.9391 40.6665 64.9425 40.0427 64.3359C39.4195 63.73 38.4223 63.7441 37.8157 64.3679L34.0901 68.2005C32.936 68.0055 31.6952 67.8997 30.3904 67.8997C23.7094 67.8997 18.671 70.6373 18.671 74.2669C18.671 77.8966 23.7094 80.6341 30.3904 80.6341C37.0713 80.6341 42.1097 77.8966 42.1097 74.2669C42.1097 72.1273 40.3583 70.299 37.553 69.1578ZM30.3904 77.4844C25.2388 77.4844 21.8208 75.5478 21.8208 74.2669C21.8208 72.9861 25.2388 71.0495 30.3904 71.0495C35.542 71.0495 38.96 72.9861 38.96 74.2669C38.96 75.5478 35.542 77.4844 30.3904 77.4844Z" fill="#3F87FC"/>
<path fill-rule="evenodd" clip-rule="evenodd" d="M28.0557 42.9587C28.1714 42.9845 28.2858 42.9968 28.3996 42.9968C29.1212 42.9968 29.7721 42.4973 29.9351 41.764C30.124 40.915 29.5894 40.0735 28.7404 39.8846L24.4107 38.92C24.4919 38.6056 24.5344 38.2826 24.5344 37.9517C24.5344 35.0006 21.2517 33.0074 17.4917 32.1111L24.519 18.0361C24.5301 18.0134 24.5411 17.99 24.5516 17.9666C25.2671 16.3382 25.63 14.6052 25.63 12.815C25.63 5.74895 19.8817 0 12.815 0C5.74895 0 0 5.74895 0 12.815C0 14.6046 0.362962 16.3376 1.07904 17.9666C1.08889 17.99 1.09996 18.0134 1.11165 18.0361L8.14573 32.1252C4.37584 33.0431 1.09565 35.0369 1.09565 37.9523C1.09565 41.5819 6.13406 44.3189 12.815 44.3189C16.8734 44.3189 20.3234 43.3075 22.4083 41.7013L28.0557 42.9587ZM3.14977 12.815C3.14977 7.48563 7.48563 3.14977 12.815 3.14977C18.1444 3.14977 22.4803 7.48563 22.4803 12.815C22.4803 14.1537 22.212 15.4486 21.683 16.6649L12.815 34.4266L3.94767 16.6649C3.41799 15.448 3.14977 14.1531 3.14977 12.815ZM4.24542 37.9523C4.24542 37.1249 6.29647 35.6865 9.59573 35.0295L11.4062 38.6554C11.6726 39.1894 12.2183 39.5266 12.815 39.5266C13.4117 39.5266 13.9574 39.1894 14.2244 38.6554L16.0392 35.0197C19.376 35.6527 21.3846 37.0873 21.3846 37.9517C21.3846 38.2205 21.232 38.5183 20.9472 38.8209C20.8992 38.8634 20.8537 38.9077 20.8113 38.9557C19.6356 40.0532 16.7258 41.1691 12.815 41.1691C7.66342 41.1691 4.24542 39.2331 4.24542 37.9523Z" fill="#3F87FC"/>
<path fill-rule="evenodd" clip-rule="evenodd" d="M43.3352 59.3738C42.4678 59.3738 41.7603 60.0807 41.7603 60.9487C41.7603 61.8161 42.4678 62.5236 43.3352 62.5236C44.2026 62.5236 44.9101 61.8161 44.9101 60.9487C44.9101 60.0807 44.2026 59.3738 43.3352 59.3738Z" fill="#3F87FC"/>
<path fill-rule="evenodd" clip-rule="evenodd" d="M34.5478 44.3656C35.4152 44.3656 36.1227 43.6582 36.1227 42.7908C36.1227 41.9233 35.4152 41.2159 34.5478 41.2159C33.6804 41.2159 32.9729 41.9233 32.9729 42.7908C32.9729 43.6582 33.6804 44.3656 34.5478 44.3656Z" fill="#3F87FC"/>
</svg>
