<svg width="70" height="92" viewBox="0 0 70 92" fill="none" xmlns="http://www.w3.org/2000/svg">
<path d="M69.6371 75.5436C69.4342 63.1393 56.7517 59.4745 47.4912 56.7986C46.4107 56.4865 45.3716 56.1861 44.3979 55.8862V50.7691C46.2911 49.5824 47.95 48.0552 49.2883 46.2738H54.9293C57.6897 46.2738 59.9357 44.0278 59.9357 41.2674V35.2071C60.2703 34.427 60.4562 33.5685 60.4562 32.667V30.7822C60.4562 29.8816 60.2703 29.0236 59.9357 28.244V25.1176C59.9357 11.2678 48.6683 0 34.8186 0C20.9717 0 9.70655 11.2678 9.70655 25.1178V28.1547C9.70655 28.1786 9.70923 28.2016 9.71012 28.2253C9.37035 29.01 9.18103 29.8743 9.18103 30.7823V32.6671C9.18103 36.2301 12.0775 39.1289 15.6376 39.1289H17.1108C18.1312 44.0219 21.1352 48.1951 25.2394 50.7682V55.8862C24.2655 56.1861 23.2266 56.4863 22.1461 56.7986C12.8856 59.4745 0.203044 63.1395 0.000178168 75.5436C-9.79326e-08 75.5534 0 75.563 0 75.5728V89.4889C0 90.4735 0.798273 91.2716 1.78265 91.2716H7.06787C8.05225 91.2716 8.85052 90.4735 8.85052 89.4889C8.85052 88.5044 8.05225 87.7063 7.06787 87.7063H3.56513V75.5876C3.64018 71.2598 5.6282 68.0156 9.82118 65.3782C12.588 63.6377 15.9706 62.3977 19.3049 61.3604L23.612 69.7521C24.092 70.6874 25.3212 71.0053 26.1947 70.4159L28.1151 69.1205L29.7639 75.3175L26.9389 87.7061H23.0756C22.0912 87.7061 21.2929 88.5042 21.2929 89.4887C21.2929 90.4733 22.0912 91.2714 23.0756 91.2714H67.8546C68.839 91.2714 69.6373 90.4733 69.6373 89.4887V75.5726C69.6373 75.563 69.6373 75.5534 69.6371 75.5436ZM46.5014 60.2236C46.6189 60.2575 46.7384 60.2922 46.8567 60.3265L43.775 66.3365L38.008 62.4476L42.8944 59.1517C44.0296 59.5089 45.2368 59.8582 46.5014 60.2236ZM34.8199 64.5981L38.3945 67.0086L36.6669 73.5021H32.9704L31.2433 67.0105L34.8199 64.5981ZM34.8195 60.2978L28.8045 56.2417V52.4888C30.6872 53.1547 32.7106 53.5199 34.8185 53.5199C36.9261 53.5199 38.9499 53.1559 40.8324 52.4901V56.2417L34.8195 60.2978ZM49.3417 25.4438C49.3173 25.4283 49.2931 25.4128 49.2687 25.3973C45.6108 23.0688 42.4516 21.0578 37.5015 22.4741C37.4555 22.4873 37.4099 22.5023 37.3652 22.519C36.3157 22.9132 35.3615 23.2806 34.4384 23.6359C28.8011 25.8059 25.7232 26.991 20.2953 26.8384V25.4109C20.2953 17.4025 26.8104 10.8872 34.8185 10.8872C42.8265 10.8872 49.3416 17.4025 49.3416 25.4109V25.4438H49.3417ZM56.3704 41.2674C56.3704 42.0621 55.724 42.7085 54.9293 42.7085H51.3768C51.8785 41.5713 52.2671 40.3736 52.5266 39.1287H53.9998C54.8368 39.1287 55.6359 38.9669 56.3706 38.6754V41.2674H56.3704ZM56.8909 32.667C56.8909 34.264 55.594 35.5634 53.9996 35.5634H52.9055C52.9058 35.5192 52.9072 27.8907 52.9072 27.8907H53.9998C55.594 27.8907 56.8911 29.1878 56.8911 30.7822V32.667H56.8909ZM15.6376 35.5636C14.0434 35.5636 12.7463 34.2642 12.7463 32.6671V30.7823C12.7463 29.1879 14.0432 27.8909 15.6376 27.8909H16.7302C16.7302 27.8909 16.7316 35.5194 16.732 35.5636H15.6376ZM16.7635 24.3254H15.6374C14.8041 24.3254 14.0081 24.4858 13.2761 24.7746C13.4603 13.0483 23.0524 3.56531 34.8186 3.56531C46.5883 3.56531 56.183 13.0494 56.3659 24.7766C55.6327 24.4865 54.8348 24.3254 53.9996 24.3254H52.8735C52.3102 14.8545 44.428 7.3219 34.8186 7.3219C25.2091 7.3219 17.3269 14.8547 16.7635 24.3254ZM20.4027 37.1653C20.4025 37.1635 20.4021 37.1618 20.4019 37.16C20.3344 36.5926 20.2955 36.0164 20.2955 35.4312V30.4035C26.3945 30.5522 30.0327 29.1525 35.7192 26.9634C36.6148 26.6186 37.5406 26.2622 38.549 25.8831C41.9165 24.9431 43.854 26.1769 47.3541 28.405C47.9614 28.7917 48.6276 29.2154 49.3417 29.6505V35.4312C49.3417 38.0821 48.6244 40.5672 47.3789 42.7087H34.8186C33.8343 42.7087 33.036 43.5068 33.036 44.4913C33.036 45.4759 33.8343 46.274 34.8186 46.274H44.4671C41.8997 48.5613 38.5194 49.9548 34.8186 49.9548C27.3976 49.9546 21.2628 44.3585 20.4027 37.1653ZM25.8665 66.3367L22.7814 60.3261C22.8994 60.2921 23.0185 60.2575 23.1358 60.2236C24.4004 59.8582 25.6077 59.5088 26.7432 59.1515L31.6316 62.448L25.8665 66.3367ZM30.5959 87.7063L33.0219 77.0674H36.6159L39.0457 87.7063H30.5959ZM66.072 87.7063H42.7028L39.8734 75.3173L41.5228 69.118L43.4479 70.4161C44.3218 71.0053 45.5509 70.6874 46.0308 69.7515L50.3331 61.3608C53.6672 62.3981 57.0496 63.6379 59.8163 65.3782C64.0091 68.0154 65.9973 71.2598 66.0723 75.5876V87.7063H66.072Z" fill="#3F87FC"/>
<path d="M59.0323 78.7924H50.0483C49.0639 78.7924 48.2656 79.5905 48.2656 80.5751C48.2656 81.5597 49.0639 82.3577 50.0483 82.3577H59.0323C60.0167 82.3577 60.8149 81.5597 60.8149 80.5751C60.8149 79.5905 60.0168 78.7924 59.0323 78.7924Z" fill="#3F87FC"/>
<path d="M15.0718 87.7063C14.0875 87.7063 13.2892 88.5044 13.2892 89.4889C13.2892 90.4735 14.0875 91.2716 15.0718 91.2716H15.0768C16.0612 91.2716 16.8568 90.4735 16.8568 89.4889C16.8568 88.5044 16.0562 87.7063 15.0718 87.7063Z" fill="#3F87FC"/>
</svg>
