<svg width="93" height="63" viewBox="0 0 93 63" fill="none" xmlns="http://www.w3.org/2000/svg">
<path d="M76.0324 46.0645C73.7599 46.0645 71.6011 46.9489 69.9725 48.5484C68.3439 50.1667 67.4349 52.2742 67.4349 54.5323C67.4349 56.7903 68.325 58.8979 69.9725 60.5161C71.62 62.1156 73.7599 63 76.0324 63C80.6909 63 84.4783 59.1989 84.4783 54.5323C84.4783 49.8656 80.6909 46.0645 76.0324 46.0645ZM76.0324 59.2366C73.4191 59.2366 71.2224 57.0914 71.2224 54.5323C71.2224 51.9731 73.4191 49.828 76.0324 49.828C78.6078 49.828 80.6909 51.9355 80.6909 54.5323C80.6909 57.129 78.6078 59.2366 76.0324 59.2366ZM78.2291 17.8575C77.8882 17.5376 77.4337 17.3683 76.9603 17.3683H67.2456C66.204 17.3683 65.3519 18.2151 65.3519 19.25V34.6801C65.3519 35.7151 66.204 36.5618 67.2456 36.5618H82.6604C83.7019 36.5618 84.5541 35.7151 84.5541 34.6801V24.3495C84.5541 23.8226 84.3268 23.3145 83.9291 22.957L78.2291 17.8575ZM80.7666 32.7984H69.1393V21.1129H76.2217L80.7666 25.1774V32.7984ZM29.788 46.0645C27.5156 46.0645 25.3568 46.9489 23.7282 48.5484C22.0996 50.1667 21.1906 52.2742 21.1906 54.5323C21.1906 56.7903 22.0806 58.8979 23.7282 60.5161C25.3757 62.1156 27.5156 63 29.788 63C34.4465 63 38.234 59.1989 38.234 54.5323C38.234 49.8656 34.4465 46.0645 29.788 46.0645ZM29.788 59.2366C27.1747 59.2366 24.978 57.0914 24.978 54.5323C24.978 51.9731 27.1747 49.828 29.788 49.828C32.3635 49.828 34.4465 51.9355 34.4465 54.5323C34.4465 57.129 32.3635 59.2366 29.788 59.2366ZM17.157 48.379H13.3506V43.3737C13.3506 42.3387 12.4985 41.4919 11.4569 41.4919C10.4154 41.4919 9.56322 42.3387 9.56322 43.3737V50.2608C9.56322 51.2957 10.4154 52.1425 11.4569 52.1425H17.157C18.1985 52.1425 19.0507 51.2957 19.0507 50.2608C19.0507 49.2258 18.1985 48.379 17.157 48.379ZM26.7581 38.1237C26.7581 37.0887 25.9059 36.2419 24.8644 36.2419H1.89371C0.852169 36.2419 0 37.0887 0 38.1237C0 39.1586 0.852169 40.0054 1.89371 40.0054H24.8644C25.9059 40.0054 26.7581 39.1774 26.7581 38.1237ZM5.73794 31.3306L28.7086 31.4624C29.7502 31.4624 30.6023 30.6344 30.6213 29.5995C30.6402 28.5457 29.788 27.6989 28.7465 27.6989L5.77581 27.5672C5.75687 27.5672 5.75687 27.5672 5.75687 27.5672C4.71533 27.5672 3.86316 28.3952 3.86316 29.4301C3.84423 30.4839 4.6964 31.3306 5.73794 31.3306ZM9.6011 22.7876H32.5718C33.6133 22.7876 34.4655 21.9409 34.4655 20.9059C34.4655 19.871 33.6133 19.0242 32.5718 19.0242H9.6011C8.55956 19.0242 7.70739 19.871 7.70739 20.9059C7.70739 21.9409 8.55956 22.7876 9.6011 22.7876ZM92.2993 20.2473L78.7404 9.08871C78.3995 8.80645 77.9829 8.65591 77.5284 8.65591H61.5834V1.88172C61.5834 0.846774 60.7312 0 59.6897 0H11.4569C10.4154 0 9.56322 0.846774 9.56322 1.88172V15.6559C9.56322 16.6909 10.4154 17.5376 11.4569 17.5376C12.4985 17.5376 13.3506 16.6909 13.3506 15.6559V3.76344H57.8149V48.379H42.2865C41.245 48.379 40.3928 49.2258 40.3928 50.2608C40.3928 51.2957 41.245 52.1425 42.2865 52.1425H65.4087C66.4502 52.1425 67.3024 51.2957 67.3024 50.2608C67.3024 49.2258 66.4502 48.379 65.4087 48.379H61.6023V12.4194H76.8656L89.2126 22.5806L89.08 48.3414H87.1106C86.069 48.3414 85.2169 49.1882 85.2169 50.2231C85.2169 51.2581 86.069 52.1048 87.1106 52.1048H90.9548C91.9963 52.1048 92.8485 51.2769 92.8485 50.2419L93 21.715C92.9811 21.1505 92.7349 20.6048 92.2993 20.2473Z" fill="#3F87FC"/>
</svg>
