<svg width="83" height="68" viewBox="0 0 83 68" fill="none" xmlns="http://www.w3.org/2000/svg">
<path d="M18.0127 50.3571C17.3302 49.7854 16.3135 49.8753 15.7419 50.5578L11.7113 55.3701L10.2546 54.1358C9.57534 53.5604 8.55837 53.6445 7.98275 54.3238C7.40729 55.003 7.49144 56.0202 8.1707 56.5956L10.8642 58.8776C11.1565 59.1252 11.5261 59.2597 11.9062 59.2597C11.952 59.2597 11.9977 59.2577 12.0437 59.2537C12.4712 59.2171 12.8666 59.0118 13.1421 58.6828L18.2137 52.6279C18.7849 51.9454 18.695 50.9289 18.0127 50.3571Z" fill="#3F87FC"/>
<path d="M79.117 25.4959H76.8003C74.8599 25.4063 73.2994 23.7535 71.4939 21.8412C70.2873 20.5634 68.9955 19.1952 67.4394 18.1811V4.40169C67.4394 1.97461 65.4648 0 63.0379 0H10.4609C8.03385 0 6.0594 1.97461 6.0594 4.40169V15.5833C6.0594 16.4736 6.78106 17.1953 7.67133 17.1953C8.5616 17.1953 9.28326 16.4736 9.28326 15.5833V4.40169C9.28326 3.76337 9.82261 3.22386 10.4609 3.22386H28.2984V17.4857C28.2984 18.0717 28.6164 18.6115 29.1288 18.8957C29.3722 19.0306 29.6414 19.0976 29.9101 19.0976C30.2072 19.0976 30.5037 19.0156 30.7646 18.8526L36.7513 15.1109L42.7337 18.8525C43.2306 19.1631 43.8569 19.1799 44.3696 18.8958C44.8824 18.6118 45.2004 18.072 45.2004 17.4859V3.22386H63.038C63.6763 3.22386 64.2157 3.76321 64.2157 4.40169V16.8145C63.6913 16.7047 63.1409 16.6388 62.5588 16.6285C62.5493 16.6283 62.5399 16.6283 62.5304 16.6283H58.4468H55.275H53.4482C53.4398 16.6283 53.4316 16.6283 53.4232 16.6285C51.48 16.6586 50.4816 17.5396 49.9861 18.2731C49.217 19.4118 49.1458 20.9539 49.7847 22.6137C49.9335 23.0013 50.1149 23.3678 50.3238 23.7123H38.1007C35.4745 23.7123 33.3379 25.8489 33.3379 28.475C33.3379 29.015 33.4282 29.5344 33.594 30.0186H33.1662C30.5401 30.0186 28.4035 32.1552 28.4035 34.7816C28.4035 37.4079 30.5401 39.5445 33.1662 39.5445H33.5929C33.4277 40.0274 33.3377 40.5452 33.3377 41.0836C33.3377 43.6277 35.3388 45.7125 37.8481 45.8444C37.6813 46.3293 37.5907 46.8491 37.5907 47.3901C37.5907 50.0164 39.7273 52.153 42.3534 52.153H62.3243C63.0121 52.153 63.6381 52.0688 64.2152 51.9247V56.9756C64.2152 57.6165 63.6759 58.1577 63.0375 58.1577H25.7004C26.0167 57.0317 26.1895 55.8461 26.1895 54.6202C26.1895 47.3994 20.3151 41.5249 13.0945 41.5249C11.769 41.5249 10.4895 41.7245 9.28277 42.0925V30.0757C9.28277 29.1854 8.56111 28.4638 7.67085 28.4638C6.78058 28.4638 6.05892 29.1854 6.05892 30.0757V43.5841C2.41967 45.9131 0 49.9882 0 54.6204C0 61.8437 5.87435 67.7204 13.095 67.7204C17.8442 67.7204 22.0106 65.1775 24.3066 61.3818H63.038C65.4649 61.3818 67.4395 59.4052 67.4395 56.9757V50.3389C67.7955 50.0846 68.1357 49.8236 68.4657 49.5692C69.8892 48.4723 71.1185 47.525 73.076 47.525H79.1172C80.9994 47.525 82.5309 45.9956 82.5309 44.1157V28.9098C82.5307 27.0272 80.9994 25.4959 79.117 25.4959ZM41.9766 14.5763L37.6065 11.843C37.0837 11.5163 36.4204 11.5161 35.8973 11.8428L31.5222 14.5773V3.22386H41.9766V14.5763ZM13.095 64.4965C7.65199 64.4965 3.22386 60.0661 3.22386 54.6204C3.22386 49.1772 7.65199 44.7489 13.095 44.7489C18.538 44.7489 22.9661 49.1772 22.9661 54.6204C22.9661 60.0661 18.538 64.4965 13.095 64.4965ZM79.3069 44.1157C79.3069 44.2146 79.2182 44.3011 79.117 44.3011H73.0758C70.0201 44.3011 68.1488 45.7432 66.4977 47.0156C65.1103 48.0848 64.0145 48.9293 62.3244 48.9293H42.3537C41.5052 48.9293 40.8148 48.2389 40.8148 47.3902C40.8148 46.5415 41.5052 45.8512 42.3537 45.8512H47.7044C48.5947 45.8512 49.3163 45.1295 49.3163 44.2392C49.3163 43.349 48.5947 42.6273 47.7044 42.6273H38.1008C37.2522 42.6273 36.5619 41.935 36.5619 41.0837C36.5619 40.235 37.2523 39.5446 38.1008 39.5446H47.7044C48.5947 39.5446 49.3163 38.823 49.3163 37.9327C49.3163 37.0424 48.5947 36.3208 47.7044 36.3208H33.1664C32.3179 36.3208 31.6275 35.6304 31.6275 34.7817C31.6275 33.933 32.3179 33.2426 33.1664 33.2426H47.7044C48.5947 33.2426 49.3163 32.521 49.3163 31.6307C49.3163 30.7404 48.5947 30.0188 47.7044 30.0188H38.1008C37.2522 30.0188 36.5619 29.3263 36.5619 28.4752C36.5619 27.6265 37.2523 26.9363 38.1008 26.9363H56.0869H59.5853H61.9222C62.8125 26.9363 63.5342 26.2146 63.5342 25.3244C63.5342 24.4341 62.8125 23.7124 61.9222 23.7124H59.5853H56.0869C54.6125 23.7124 53.3202 22.8277 52.794 21.4572C52.4875 20.6606 52.571 20.2063 52.658 20.0774C52.7454 19.9481 53.0602 19.8599 53.4619 19.8524H58.4468H62.5156C65.2338 19.9067 67.1362 21.9216 69.1501 24.0545C71.2569 26.2859 73.4353 28.5932 76.7049 28.7186C76.7254 28.7194 76.746 28.7197 76.7666 28.7197H79.1173C79.2202 28.7197 79.3072 28.8068 79.3072 28.9096V44.1157H79.3069Z" fill="#3F87FC"/>
<path d="M7.67133 24.4438C8.5616 24.4438 9.28326 23.7176 9.28326 22.8273C9.28326 21.9371 8.5616 21.2154 7.67133 21.2154C6.78106 21.2154 6.0594 21.9371 6.0594 22.8273V22.8365C6.0594 23.7266 6.78106 24.4438 7.67133 24.4438Z" fill="#3F87FC"/>
</svg>
