<svg width="71" height="71" viewBox="0 0 71 71" fill="none" xmlns="http://www.w3.org/2000/svg">
<path d="M35.4999 0C21.7498 0 10.5632 11.1866 10.5632 24.9367C10.5632 42.1176 32.9521 69.1138 33.9052 70.2547C34.7348 71.2477 36.264 71.2491 37.0946 70.2547C38.0478 69.1138 60.4367 42.1175 60.4367 24.9367C60.4367 11.1866 49.2502 0 35.4999 0ZM35.4999 65.6048C30.3824 59.1019 14.7193 38.1195 14.7193 24.9367C14.7193 13.4783 24.0415 4.15612 35.4999 4.15612C46.9584 4.15612 56.2805 13.4783 56.2805 24.9367C56.2805 38.1195 40.6176 59.1019 35.4999 65.6048Z" fill="#3F87FC"/>
<path d="M50.0464 22.8587H47.7942C46.9158 17.6454 42.7913 13.5208 37.578 12.6425V10.3903C37.578 9.24266 36.6476 8.31224 35.4999 8.31224C34.3523 8.31224 33.4219 9.24266 33.4219 10.3903V12.6425C28.2086 13.521 24.084 17.6455 23.2057 22.8587H20.9535C19.8059 22.8587 18.8755 23.7891 18.8755 24.9367C18.8755 26.0844 19.8059 27.0148 20.9535 27.0148H23.2057C24.084 32.2281 28.2086 36.3526 33.4219 37.231V39.4832C33.4219 40.6308 34.3523 41.5612 35.4999 41.5612C36.6476 41.5612 37.578 40.6308 37.578 39.4832V37.231C42.7913 36.3525 46.9158 32.228 47.7942 27.0148H50.0464C51.194 27.0148 52.1244 26.0844 52.1244 24.9367C52.1244 23.7891 51.1941 22.8587 50.0464 22.8587ZM35.4999 33.249C30.9166 33.249 27.1877 29.5201 27.1877 24.9367C27.1877 20.3534 30.9166 16.6245 35.4999 16.6245C40.0833 16.6245 43.8122 20.3534 43.8122 24.9367C43.8122 29.5201 40.0833 33.249 35.4999 33.249Z" fill="#3F87FC"/>
</svg>
