<?xml version="1.0"?>
<svg xmlns="http://www.w3.org/2000/svg" xmlns:xlink="http://www.w3.org/1999/xlink" xmlns:svgjs="http://svgjs.com/svgjs" version="1.1" width="512" height="512" x="0" y="0" viewBox="0 0 512 512" style="enable-background:new 0 0 512 512" xml:space="preserve"><g><g xmlns="http://www.w3.org/2000/svg"><g><path d="m286.661 376.655-9.07-2.27c-4.019-1.009-8.09 1.436-9.096 5.455-1.006 4.018 1.436 8.091 5.455 9.096l9.073 2.271c23.686 5.917 40.228 27.104 40.228 51.523v54.27h-54.699v-12.703c0-4.142-3.358-7.5-7.5-7.5s-7.5 3.358-7.5 7.5v12.703h-168.851v-12.703c0-4.142-3.358-7.5-7.5-7.5s-7.5 3.358-7.5 7.5v12.703h-54.701v-54.27c0-24.419 16.542-45.606 40.229-51.524l66.918-16.732c4.372 21.941 23.772 38.53 46.979 38.53s42.607-16.589 46.979-38.53l23.886 5.971c.611.153 1.222.226 1.825.226 3.36 0 6.418-2.275 7.27-5.683 1.005-4.019-1.438-8.09-5.457-9.095l-26.597-6.649v-35.189c33.754-16.678 57.639-50.398 60.346-89.851h2.866c20.846 0 37.805-16.959 37.805-37.805 0-14.491-8.199-27.097-20.199-33.44v-34.24c0-70.975-57.744-128.719-128.72-128.719-34.377 0-66.703 13.387-91.025 37.699-13.415 13.425-23.856 29.905-30.198 47.658-1.393 3.901.64 8.193 4.54 9.586 3.902 1.394 8.193-.639 9.586-4.54 5.6-15.678 14.826-30.236 26.679-42.098 21.487-21.477 50.046-33.305 80.418-33.305 62.706 0 113.72 51.015 113.72 113.72v29.975c-.862-.059-1.729-.1-2.606-.1h-10.102c-4.142 0-7.5 3.358-7.5 7.5v31.666l-36.452-65.613c-1.354-2.436-3.924-3.918-6.733-3.856-2.787.066-5.307 1.671-6.544 4.169-.209.423-21.605 42.297-78.133 42.297-31.034 0-49.161 12.246-59.17 23.205v-31.867c0-4.142-3.358-7.5-7.5-7.5h-10.102c-.874 0-1.739.041-2.598.099v-29.975c0-2.063.057-4.143.168-6.179.227-4.136-2.942-7.673-7.078-7.9-4.157-.241-7.673 2.942-7.9 7.078-.126 2.31-.191 4.665-.191 7.001v34.236c-12.004 6.342-20.207 18.95-20.207 33.444 0 20.846 16.959 37.805 37.805 37.805h2.865c2.707 39.453 26.592 73.173 60.346 89.851v35.189l-69.627 17.409c-30.375 7.588-51.591 34.76-51.591 66.076v61.77c0 4.142 3.358 7.5 7.5 7.5h323.25c4.142 0 7.5-3.358 7.5-7.5v-61.77c0-31.316-21.216-58.488-51.589-66.075zm-9.019-203.059h2.602c12.575 0 22.805 10.23 22.805 22.805s-10.23 22.805-22.805 22.805h-2.602zm-242.439 22.804c0-12.575 10.23-22.805 22.805-22.805h2.602v45.609h-2.602c-12.574.001-22.805-10.229-22.805-22.804zm40.418 31.168c.609-2.245 3.126-10.226 9.94-18.221 11.078-12.998 27.638-19.588 49.219-19.588 46.742 0 72.794-24.559 84.315-39.494l43.522 78.34c-1.016 50.692-42.562 91.617-93.492 91.617-51.275 0-93.038-41.485-93.504-92.654zm93.505 107.654c11.467 0 22.522-1.794 32.906-5.106v34.982c0 18.145-14.762 32.906-32.906 32.906s-32.906-14.762-32.906-32.906v-34.982c10.384 3.312 21.439 5.106 32.906 5.106z" fill="#248afd" data-original="#000000" style=""/><path d="m484.3 138.39h-1.82c-4.142 0-7.5 3.358-7.5 7.5s3.358 7.5 7.5 7.5h1.82c7.003 0 12.7 5.702 12.7 12.71v90.91c0 7.003-5.697 12.7-12.7 12.7h-8.08c-4.142 0-7.5 3.358-7.5 7.5v20.284l-25.587-25.587c-1.406-1.407-3.314-2.197-5.303-2.197h-74.75c-7.008 0-12.71-5.697-12.71-12.7v-90.91c0-7.008 5.702-12.71 12.71-12.71h84.4c4.142 0 7.5-3.358 7.5-7.5s-3.358-7.5-7.5-7.5h-84.4c-15.279 0-27.71 12.431-27.71 27.71v90.91c0 15.274 12.431 27.7 27.71 27.7h71.644l36.193 36.193c1.435 1.435 3.353 2.197 5.305 2.197.966 0 1.941-.187 2.869-.571 2.803-1.161 4.63-3.896 4.63-6.929v-30.89h.58c15.274 0 27.7-12.426 27.7-27.7v-90.91c-.001-15.279-12.427-27.71-27.701-27.71z" fill="#248afd" data-original="#000000" style=""/><path d="m472.175 170.717h-96.976c-4.142 0-7.5 3.358-7.5 7.5s3.358 7.5 7.5 7.5h96.976c4.142 0 7.5-3.358 7.5-7.5s-3.358-7.5-7.5-7.5z" fill="#248afd" data-original="#000000" style=""/><path d="m479.675 210.542c0-4.142-3.358-7.5-7.5-7.5h-96.976c-4.142 0-7.5 3.358-7.5 7.5s3.358 7.5 7.5 7.5h96.976c4.142 0 7.5-3.357 7.5-7.5z" fill="#248afd" data-original="#000000" style=""/><path d="m375.199 235.368c-4.142 0-7.5 3.358-7.5 7.5s3.358 7.5 7.5 7.5h66.671c4.142 0 7.5-3.358 7.5-7.5s-3.358-7.5-7.5-7.5z" fill="#248afd" data-original="#000000" style=""/><path d="m469.339 402.643.988-.988c3.665-3.665 5.684-8.538 5.684-13.722s-2.018-10.057-5.684-13.722l-13.469-13.469c-4.342-4.343-10.246-6.18-15.92-5.537-2.244-8.994-6.878-17.261-13.543-23.927-20.1-20.099-52.803-20.099-72.902 0-20.1 20.099-20.1 52.803 0 72.902 6.662 6.663 14.925 11.295 23.915 13.54-.082.727-.134 1.46-.134 2.202 0 5.184 2.018 10.057 5.684 13.722l13.469 13.469c3.665 3.666 8.538 5.684 13.722 5.684s10.057-2.019 13.721-5.684l.988-.988 44.445 38.004c3.618 3.093 8.112 4.623 12.597 4.622 4.998 0 9.985-1.899 13.736-5.65l9.683-9.682c7.117-7.117 7.568-18.684 1.027-26.333zm-104.24-60.757c14.251-14.25 37.439-14.25 51.688 0 5.732 5.732 9.351 13.13 10.387 21.099l-40.978 40.977c-7.968-1.036-15.366-4.655-21.098-10.386-14.25-14.252-14.25-37.439.001-51.69zm46.048 95.912c-1.177 0-2.283-.458-3.115-1.29l-13.469-13.469c-.832-.832-1.29-1.938-1.29-3.115 0-1.176.458-2.283 1.29-3.115 0 0 45.444-45.443 45.474-45.471.857-.849 1.978-1.276 3.1-1.276 1.128 0 2.256.429 3.115 1.288l13.469 13.469c.832.832 1.29 1.938 1.29 3.115 0 1.176-.458 2.283-1.29 3.114l-45.459 45.459c-.832.833-1.939 1.291-3.115 1.291zm84.563 25.017-9.683 9.682c-1.616 1.615-4.242 1.718-5.978.233l-43.555-37.242 22.206-22.206 37.243 43.555c1.485 1.737 1.383 4.362-.233 5.978z" fill="#248afd" data-original="#000000" style=""/></g></g></g></svg>
