<svg width="70" height="70" viewBox="0 0 70 70" fill="none" xmlns="http://www.w3.org/2000/svg">
<g clip-path="url(#clip0)">
<path d="M45.7945 18.8405H12.2725C11.7038 18.8405 11.2428 19.3015 11.2428 19.8702C11.2428 20.439 11.7038 20.9 12.2725 20.9H45.7946C46.3634 20.9 46.8244 20.439 46.8244 19.8702C46.8244 19.3015 46.3632 18.8405 45.7945 18.8405Z" fill="#4178E1"/>
<path d="M12.2725 13.7569H29.0334C29.6022 13.7569 30.0632 13.2959 30.0632 12.7272C30.0632 12.1584 29.6022 11.6974 29.0334 11.6974H12.2725C11.7038 11.6974 11.2428 12.1584 11.2428 12.7272C11.2428 13.296 11.7038 13.7569 12.2725 13.7569Z" fill="#4178E1"/>
<path d="M45.7945 25.1694H12.2725C11.7038 25.1694 11.2428 25.6305 11.2428 26.1992C11.2428 26.768 11.7038 27.229 12.2725 27.229H45.7946C46.3634 27.229 46.8244 26.768 46.8244 26.1992C46.8243 25.6305 46.3632 25.1694 45.7945 25.1694Z" fill="#4178E1"/>
<path d="M19.9087 62.8452H9.18079C7.41999 62.8452 5.98732 61.4127 5.98732 59.6519V5.25287C5.98732 3.49207 7.41999 2.05939 9.18079 2.05939H40.0869C40.1867 2.05939 40.285 2.06855 40.3822 2.08168V8.50391C40.3822 11.4004 42.7387 13.7568 45.6351 13.7568H52.0572C52.0704 13.8541 52.0794 13.9524 52.0794 14.0522V31.5879C52.0794 32.1567 52.5405 32.6177 53.1092 32.6177C53.678 32.6177 54.139 32.1567 54.139 31.5879V14.0524C54.139 12.9228 53.699 11.8608 52.9003 11.0619L43.0771 1.23867C42.2784 0.439961 41.2165 0 40.0869 0H9.18079C6.28427 0 3.92792 2.35648 3.92792 5.25287V59.6519C3.92792 62.5483 6.28441 64.9046 9.18079 64.9046H19.9087C20.4775 64.9046 20.9385 64.4436 20.9385 63.8749C20.9385 63.3061 20.4775 62.8452 19.9087 62.8452ZM50.6233 11.6974H45.6352C43.8744 11.6974 42.4417 10.2647 42.4417 8.50391V3.51586L50.6233 11.6974Z" fill="#4178E1"/>
<path d="M65.756 50.4123L57.0309 35.6849C56.395 34.6111 55.0111 34.2562 53.9368 34.8926L51.8145 36.15C50.1672 37.1259 49.4709 39.1008 50.0365 40.851C49.3214 41.1101 48.5375 41.106 47.8156 40.8269C46.14 40.2997 44.866 39.2392 42.7621 39.7713C39.1896 40.6809 39.2982 40.6354 38.975 40.7461C36.8832 39.5552 35.6258 39.2008 33.4052 40.0598L31.4258 40.825C30.5093 41.1791 29.4995 41.0952 28.6527 40.5934L28.1125 40.275C28.3761 38.6956 27.6757 37.0289 26.1926 36.1503C26.1926 36.1503 26.1926 36.1503 26.1924 36.1502L24.0703 34.8929C22.999 34.2584 21.611 34.6136 20.9763 35.6849L12.251 50.4124C11.6151 51.4859 11.9689 52.8702 13.043 53.5063L15.1651 54.7636C15.8073 55.1441 16.513 55.325 17.2103 55.325C17.9878 55.325 18.7544 55.0997 19.4098 54.6753L19.8521 54.9363L18.9183 56.2369C17.8056 57.787 18.1591 59.9425 19.7095 61.0554C20.4265 61.57 21.3272 61.805 22.2586 61.6588C22.4064 62.5227 22.8797 63.3312 23.6462 63.8817C24.366 64.3985 25.2626 64.6337 26.1957 64.4868C26.3439 65.35 26.817 66.1579 27.583 66.7079C28.6125 67.4469 29.8925 67.5323 30.959 67.0768C31.1924 67.683 31.598 68.2304 32.1639 68.6367C33.6416 69.6973 35.677 69.4207 36.8252 68.0467L39.3066 69.5167C40.9477 70.4891 43.065 69.9487 44.0381 68.3057C44.2869 67.8857 44.4413 67.428 44.4977 66.9576L44.5033 66.961C46.1419 67.9314 48.264 67.3881 49.2348 65.7499C49.5158 65.2754 49.6699 64.7606 49.7074 64.2448C51.1517 64.6079 52.7257 64.0013 53.5228 62.656C53.7843 62.2146 53.936 61.7379 53.9859 61.2582C55.5338 61.8656 57.343 61.2785 58.2172 59.8031C58.6874 59.0094 58.8204 58.0803 58.5916 57.1865C58.4608 56.6752 58.2202 56.2111 57.8899 55.8191L59.2576 55.02C60.4147 55.4949 61.7351 55.4189 62.8417 54.7635L64.9636 53.5062C66.0376 52.8705 66.3924 51.4865 65.756 50.4123ZM16.2148 52.9919L14.0927 51.7345C13.9984 51.6786 13.967 51.5563 14.0228 51.462L22.7482 36.7342C22.8044 36.6395 22.927 36.6087 23.0208 36.6645L25.1428 37.9216C26.0858 38.4804 26.3808 39.6898 25.8323 40.6155L18.9087 52.3023C18.3561 53.2352 17.1478 53.5444 16.2148 52.9919ZM20.9104 59.3824C20.2851 58.9334 20.1421 58.0636 20.5913 57.438L21.9639 55.5261C22.4011 54.917 23.2724 54.7504 23.9083 55.2069C24.5324 55.6549 24.6755 56.527 24.2277 57.1511L22.855 59.063C22.407 59.6874 21.5343 59.8301 20.9104 59.3824ZM24.8473 62.2088C24.2231 61.7606 24.08 60.8882 24.528 60.2642L25.9005 58.3525C25.9005 58.3525 25.9005 58.3525 25.9005 58.3523C25.9005 58.3523 25.9005 58.3522 25.9007 58.3522L27.4154 56.2424C27.6325 55.9401 27.9542 55.7402 28.3214 55.68C28.3977 55.6675 28.4741 55.6613 28.55 55.6613C28.839 55.6613 29.1203 55.7513 29.3598 55.9231C29.662 56.1402 29.8618 56.4618 29.922 56.829C29.9823 57.1964 29.896 57.5651 29.6789 57.8674L26.7915 61.8894C26.3428 62.5149 25.4729 62.658 24.8473 62.2088ZM28.7841 65.0349C28.1602 64.587 28.017 63.7153 28.4642 63.0913C28.4643 63.091 28.4646 63.0907 28.4647 63.0905L31.3521 59.0686C31.7998 58.4446 32.6726 58.3013 33.2965 58.7492C33.9206 59.1973 34.0638 60.0695 33.6157 60.6936L32.3329 62.4807C32.3329 62.4807 32.3329 62.4807 32.3328 62.4808L30.7284 64.7156C30.2803 65.3398 29.4083 65.4832 28.7841 65.0349ZM33.365 66.9637C32.7413 66.5158 32.5979 65.6445 33.0448 65.0204L34.0058 63.6819C34.4537 63.0577 35.3264 62.9149 35.9502 63.3627C36.5742 63.8106 36.7175 64.683 36.2694 65.3071L35.3093 66.6443C34.8614 67.2686 33.9888 67.4119 33.365 66.9637ZM56.4457 58.7535C56.0539 59.4148 55.1975 59.6341 54.536 59.2424C53.416 58.5789 46.1913 54.2986 45.421 53.8423C44.9315 53.5524 44.3 53.7139 44.0102 54.2032C43.7203 54.6925 43.8818 55.3242 44.3711 55.614L51.2622 59.6966L51.2623 59.6967C51.9239 60.0885 52.1445 60.9423 51.7512 61.6065C51.3592 62.2681 50.5024 62.487 49.8412 62.0956C47.2925 60.5856 45.223 59.3596 42.9465 58.0108C42.4569 57.721 41.8255 57.8824 41.5357 58.3718C41.2459 58.8611 41.4073 59.4927 41.8966 59.7826L46.9741 62.7906L46.9752 62.7913C47.6372 63.1844 47.8557 64.0378 47.4632 64.7006C47.0712 65.3622 46.2146 65.5813 45.5531 65.1895L42.8281 63.5753C42.8278 63.5751 42.8274 63.575 42.8272 63.5747C42.8269 63.5746 42.8266 63.5745 42.8263 63.5743L40.8378 62.3961C40.3483 62.1061 39.7168 62.2676 39.427 62.757C39.1371 63.2463 39.2986 63.878 39.7879 64.1678L41.7769 65.3462C41.7772 65.3463 41.7774 65.3466 41.7777 65.3467C42.4393 65.7386 42.6599 66.5922 42.2666 67.2564C41.8746 67.918 41.0181 68.1372 40.3565 67.7453L38.0363 66.3709C39.0309 64.8361 38.6526 62.7678 37.1513 61.6902C36.7104 61.3738 36.2194 61.1768 35.7172 61.0922C36.2499 59.668 35.7906 58.0052 34.4974 57.0769C33.7318 56.527 32.8151 56.3371 31.9499 56.4727C31.796 55.5724 31.3037 54.7838 30.5609 54.2508C29.1639 53.2482 27.2654 53.4409 26.0928 54.6272C25.8545 54.2087 25.5255 53.8332 25.1094 53.5345C23.9485 52.7013 22.4413 52.6936 21.292 53.3953L20.8202 53.1168L27.2966 42.1849L27.6049 42.3668C28.9666 43.1734 30.6283 43.3416 32.1683 42.746L34.1477 41.9808C35.2804 41.543 35.9051 41.5145 37.0255 42.0432C36.2924 42.8668 35.8572 43.9481 35.8572 45.1135V49.6792C35.8572 50.8919 36.8431 51.8791 38.0548 51.8799H38.0579C39.2733 51.8799 40.4163 51.4068 41.2761 50.5475C41.7773 50.0465 42.1472 49.4494 42.369 48.7975C43.6986 49.5848 54.6835 56.0898 55.9571 56.8443C56.2774 57.0341 56.5046 57.3372 56.5969 57.6979C56.6892 58.0581 56.6355 58.4331 56.4457 58.7535ZM63.9144 51.7345L61.7921 52.9919C60.8591 53.5442 59.6508 53.2348 59.0985 52.3024L55.8533 46.8248C55.5633 46.3354 54.9314 46.174 54.4425 46.4635C53.9532 46.7534 53.7916 47.385 54.0813 47.8744L57.3265 53.3521C57.3876 53.4552 57.4539 53.5532 57.5225 53.6488L56.6203 54.1759C56.4379 54.2839 56.2625 54.4028 56.0948 54.532L42.1053 46.2475C41.4199 45.8419 40.5509 46.3364 40.5509 47.1335C40.5401 47.195 40.6573 48.2535 39.8202 49.0903C39.3493 49.5608 38.7234 49.82 38.0577 49.82C38.0572 49.82 38.0566 49.82 38.0561 49.82C37.9791 49.82 37.9165 49.7566 37.9165 49.6786V45.1129C37.9165 43.9202 38.7371 42.9139 39.8468 42.633L43.267 41.7674C44.508 41.4538 45.2095 42.1164 47.0676 42.7453C48.3576 43.2444 49.7602 43.2136 51.0051 42.6819L51.6266 43.7311C51.9166 44.2207 52.5483 44.382 53.0374 44.0923C53.5268 43.8025 53.6884 43.1708 53.3987 42.6815L52.1745 40.6153C51.6206 39.6804 51.9292 38.4756 52.8639 37.9215L54.9861 36.6644C55.0788 36.6093 55.2014 36.6374 55.2589 36.7342L63.984 51.4617C64.0403 51.5567 64.0093 51.6783 63.9144 51.7345Z" fill="#4178E1"/>
</g>
<defs>
<clipPath id="clip0">
<rect width="70" height="70" fill="white"/>
</clipPath>
</defs>
</svg>
