<svg width="70" height="70" viewBox="0 0 70 70" fill="none" xmlns="http://www.w3.org/2000/svg">
<path d="M67.8125 22.9688V15.5859C67.8117 14.9335 67.5522 14.308 67.0909 13.8466C66.6295 13.3853 66.004 13.1258 65.3516 13.125H26.5234C25.871 13.1258 25.2455 13.3853 24.7841 13.8466C24.3228 14.308 24.0633 14.9335 24.0625 15.5859V17.5H21.513C21.1077 17.4996 20.7087 17.5994 20.3514 17.7907C19.9942 17.9819 19.6897 18.2585 19.4653 18.5959L15.8047 24.0871C15.074 24.1593 14.3668 24.385 13.7294 24.7495C13.092 25.1139 12.5387 25.6089 12.1059 26.202L10.0529 29.0246L11.8221 30.3114L13.8748 27.4888C14.1543 27.1056 14.5203 26.7938 14.9429 26.5785C15.3656 26.3633 15.8331 26.2507 16.3074 26.25H24.0625V36.0938H7.6166L10.7283 31.8153L8.95918 30.5285L4.75781 36.3062C4.00755 36.5683 3.35723 37.0569 2.89677 37.7047C2.43632 38.3524 2.18847 39.1272 2.1875 39.9219V53.3203C2.18826 53.9728 2.44778 54.5983 2.90913 55.0596C3.37048 55.521 3.99599 55.7805 4.64844 55.7812H6.5625C6.5625 57.8118 7.36914 59.7592 8.80496 61.195C10.2408 62.6309 12.1882 63.4375 14.2188 63.4375C16.2493 63.4375 18.1967 62.6309 19.6325 61.195C21.0684 59.7592 21.875 57.8118 21.875 55.7812H48.125C48.125 57.8118 48.9316 59.7592 50.3675 61.195C51.8033 62.6309 53.7507 63.4375 55.7812 63.4375C57.8118 63.4375 59.7592 62.6309 61.195 61.195C62.6309 59.7592 63.4375 57.8118 63.4375 55.7812H65.3516C66.004 55.7805 66.6295 55.521 67.0909 55.0596C67.5522 54.5983 67.8117 53.9728 67.8125 53.3203V25.1562H65.625V43.75H26.25V15.5859C26.25 15.5134 26.2788 15.4439 26.3301 15.3926C26.3814 15.3413 26.4509 15.3125 26.5234 15.3125H65.3516C65.4241 15.3125 65.4936 15.3413 65.5449 15.3926C65.5962 15.4439 65.625 15.5134 65.625 15.5859V22.9688H67.8125ZM18.4499 24.0625L21.2855 19.8093C21.3104 19.7719 21.3443 19.7411 21.3839 19.7199C21.4236 19.6986 21.468 19.6875 21.513 19.6875H24.0625V24.0625H18.4499ZM4.375 39.9219C4.37547 39.4869 4.54847 39.0699 4.85605 38.7623C5.16362 38.4547 5.58065 38.2817 6.01562 38.2812H7.65625V43.2031C7.65578 43.6381 7.48278 44.0551 7.1752 44.3627C6.86763 44.6703 6.4506 44.8433 6.01562 44.8438H4.375V39.9219ZM14.2188 61.25C13.1371 61.25 12.0798 60.9293 11.1805 60.3284C10.2811 59.7274 9.5802 58.8733 9.16628 57.8741C8.75237 56.8748 8.64407 55.7752 8.85508 54.7143C9.06609 53.6535 9.58694 52.6791 10.3518 51.9143C11.1166 51.1494 12.091 50.6286 13.1518 50.4176C14.2127 50.2066 15.3123 50.3149 16.3116 50.7288C17.3108 51.1427 18.1649 51.8436 18.7659 52.743C19.3668 53.6423 19.6875 54.6996 19.6875 55.7812C19.6859 57.2312 19.1092 58.6212 18.0839 59.6464C17.0587 60.6717 15.6687 61.2484 14.2188 61.25ZM21.5567 53.5938C21.0854 52.0137 20.1166 50.628 18.7945 49.6427C17.4724 48.6574 15.8676 48.1252 14.2188 48.1252C12.5699 48.1252 10.9651 48.6574 9.64296 49.6427C8.32086 50.628 7.35211 52.0137 6.88078 53.5938H4.64844C4.57592 53.5938 4.50637 53.5649 4.45509 53.5137C4.40381 53.4624 4.375 53.3928 4.375 53.3203V47.0312H6.01562C7.03055 47.0301 8.00358 46.6264 8.72124 45.9087C9.4389 45.1911 9.84259 44.2181 9.84375 43.2031V38.2812H24.0625V53.5938H21.5567ZM55.7812 61.25C54.6996 61.25 53.6423 60.9293 52.743 60.3284C51.8436 59.7274 51.1427 58.8733 50.7288 57.8741C50.3149 56.8748 50.2066 55.7752 50.4176 54.7143C50.6286 53.6535 51.1494 52.6791 51.9143 51.9143C52.6791 51.1494 53.6535 50.6286 54.7143 50.4176C55.7752 50.2066 56.8748 50.3149 57.8741 50.7288C58.8733 51.1427 59.7274 51.8436 60.3284 52.743C60.9293 53.6423 61.25 54.6996 61.25 55.7812C61.2484 57.2312 60.6717 58.6212 59.6464 59.6464C58.6212 60.6717 57.2312 61.2484 55.7812 61.25ZM65.625 45.9375V53.3203C65.625 53.3928 65.5962 53.4624 65.5449 53.5137C65.4936 53.5649 65.4241 53.5938 65.3516 53.5938H63.1192C62.6479 52.0137 61.6791 50.628 60.357 49.6427C59.0349 48.6574 57.4301 48.1252 55.7812 48.1252C54.1324 48.1252 52.5276 48.6574 51.2055 49.6427C49.8834 50.628 48.9146 52.0137 48.4433 53.5938H26.25V45.9375H65.625Z" fill="#4178E1"/>
<path d="M17.5 40.4688H21.875V42.6562H17.5V40.4688Z" fill="#4178E1"/>
<path d="M46.3966 17.5861C46.2564 17.5236 46.1047 17.4913 45.9512 17.4913C45.7977 17.4913 45.6459 17.5236 45.5057 17.5861L35.6757 21.9695C35.456 22.0674 35.2747 22.235 35.1599 22.4464C35.0451 22.6577 35.0032 22.901 35.0406 23.1386L35.8601 28.3407C35.8613 28.3493 35.8628 28.3578 35.8643 28.3664C36.6942 32.8751 39.2221 36.8936 42.927 39.5938L45.3113 41.3499C45.4983 41.4876 45.7243 41.5623 45.9565 41.563C46.1888 41.5638 46.4152 41.4906 46.603 41.354L48.8749 39.7025C52.6289 37.0036 55.1928 32.9567 56.0294 28.4095C56.031 28.401 56.0324 28.3925 56.0338 28.3841L56.8616 23.139C56.8991 22.9013 56.8572 22.658 56.7425 22.4466C56.6277 22.2351 56.4464 22.0675 56.2267 21.9695L46.3966 17.5861ZM53.8751 28.0302C53.1357 32.0185 50.8832 35.5665 47.5887 37.9326L45.9648 39.1135L44.2248 37.8319C40.9735 35.4648 38.7528 31.9418 38.0196 27.9874L37.3326 23.6261L45.9512 19.7832L54.5702 23.6265L53.8751 28.0302Z" fill="#4178E1"/>
<path d="M42.3371 27.6638L40.7905 29.2105L44.0717 32.4918C44.2768 32.6969 44.555 32.8121 44.8451 32.8121C45.1351 32.8121 45.4133 32.6969 45.6184 32.4918L52.1809 25.9293L50.6342 24.3826L44.845 30.1716L42.3371 27.6638Z" fill="#4178E1"/>
<path d="M28.4375 17.5H30.625V19.6875H28.4375V17.5Z" fill="#4178E1"/>
<path d="M28.4375 39.375H30.625V41.5625H28.4375V39.375Z" fill="#4178E1"/>
<path d="M61.25 17.5H63.4375V19.6875H61.25V17.5Z" fill="#4178E1"/>
<path d="M61.25 39.375H63.4375V41.5625H61.25V39.375Z" fill="#4178E1"/>
<path d="M14.2188 52.5C13.5698 52.5 12.9354 52.6924 12.3958 53.053C11.8562 53.4135 11.4356 53.926 11.1873 54.5256C10.9389 55.1251 10.8739 55.7849 11.0005 56.4214C11.1272 57.0579 11.4397 57.6426 11.8986 58.1014C12.3574 58.5603 12.9421 58.8728 13.5786 58.9995C14.2151 59.1261 14.8749 59.0611 15.4744 58.8127C16.074 58.5644 16.5865 58.1438 16.947 57.6042C17.3076 57.0646 17.5 56.4302 17.5 55.7812C17.499 54.9113 17.153 54.0773 16.5379 53.4621C15.9227 52.847 15.0887 52.501 14.2188 52.5ZM14.2188 56.875C14.0024 56.875 13.791 56.8109 13.6111 56.6907C13.4312 56.5705 13.291 56.3997 13.2083 56.1998C13.1255 56 13.1038 55.78 13.146 55.5679C13.1882 55.3557 13.2924 55.1608 13.4454 55.0079C13.5983 54.8549 13.7932 54.7507 14.0054 54.7085C14.2175 54.6663 14.4375 54.688 14.6373 54.7708C14.8372 54.8535 15.008 54.9937 15.1282 55.1736C15.2484 55.3535 15.3125 55.5649 15.3125 55.7812C15.3122 56.0712 15.1968 56.3492 14.9918 56.5543C14.7867 56.7593 14.5087 56.8747 14.2188 56.875Z" fill="#4178E1"/>
<path d="M55.7813 52.5C55.1323 52.5 54.4979 52.6924 53.9583 53.053C53.4187 53.4135 52.9981 53.926 52.7498 54.5256C52.5014 55.1251 52.4364 55.7849 52.563 56.4214C52.6897 57.0579 53.0022 57.6426 53.4611 58.1014C53.92 58.5603 54.5046 58.8728 55.1411 58.9995C55.7776 59.1261 56.4374 59.0611 57.0369 58.8127C57.6365 58.5644 58.149 58.1438 58.5095 57.6042C58.8701 57.0646 59.0625 56.4302 59.0625 55.7812C59.0615 54.9113 58.7155 54.0773 58.1004 53.4621C57.4852 52.847 56.6512 52.501 55.7813 52.5ZM55.7813 56.875C55.5649 56.875 55.3535 56.8109 55.1736 56.6907C54.9937 56.5705 54.8535 56.3997 54.7708 56.1998C54.688 56 54.6663 55.78 54.7085 55.5679C54.7507 55.3557 54.8549 55.1608 55.0079 55.0079C55.1608 54.8549 55.3557 54.7507 55.5679 54.7085C55.78 54.6663 56 54.688 56.1998 54.7708C56.3997 54.8535 56.5705 54.9937 56.6907 55.1736C56.8109 55.3535 56.875 55.5649 56.875 55.7812C56.8747 56.0712 56.7593 56.3492 56.5543 56.5543C56.3492 56.7593 56.0712 56.8747 55.7813 56.875Z" fill="#4178E1"/>
<path d="M2.1875 17.5H10.9375V19.6875H2.1875V17.5Z" fill="#4178E1"/>
<path d="M13.125 17.5H15.3125V19.6875H13.125V17.5Z" fill="#4178E1"/>
<path d="M12.0312 6.5625H29.5312V8.75H12.0312V6.5625Z" fill="#4178E1"/>
<path d="M31.7188 6.5625H33.9062V8.75H31.7188V6.5625Z" fill="#4178E1"/>
<path d="M41.5625 8.75H59.0625V10.9375H41.5625V8.75Z" fill="#4178E1"/>
<path d="M61.25 8.75H63.4375V10.9375H61.25V8.75Z" fill="#4178E1"/>
<path d="M22.9688 59.0625H42.6562V61.25H22.9688V59.0625Z" fill="#4178E1"/>
<path d="M44.8438 59.0625H47.0312V61.25H44.8438V59.0625Z" fill="#4178E1"/>
</svg>
