<svg width="70" height="70" viewBox="0 0 70 70" fill="none" xmlns="http://www.w3.org/2000/svg">
<g clip-path="url(#clip0)">
<path d="M58.3334 0C51.9005 0 46.6668 5.23373 46.6668 11.6666C46.6668 17.2467 54.934 28.5403 56.871 31.1108C56.8705 31.9411 56.871 32.7563 56.8509 33.5046C56.8296 34.3092 57.4648 34.98 58.2708 35.0014C58.2836 35.0014 58.2965 35.0014 58.3107 35.0014C59.0968 35.0014 59.7462 34.3733 59.7676 33.5815C59.7877 32.8137 59.7871 31.9756 59.7877 31.1217C61.7118 28.5689 70 17.2532 70 11.6666C70 5.23373 64.7663 0 58.3334 0ZM58.3334 28.184C55.1276 23.7735 49.5834 15.3795 49.5834 11.6666C49.5834 6.84154 53.5083 2.91662 58.3334 2.91662C63.1585 2.91662 67.0834 6.84154 67.0834 11.6666C67.0834 15.3795 61.5392 23.7733 58.3334 28.184Z" fill="#4178E1"/>
<path d="M58.3334 8.75C56.7256 8.75 55.4168 10.0588 55.4168 11.6666C55.4168 13.2744 56.7256 14.5832 58.3334 14.5832C59.9412 14.5832 61.25 13.2746 61.25 11.6666C61.25 10.0588 59.9412 8.75 58.3334 8.75Z" fill="#4178E1"/>
<path d="M17.5 32.0834C12.6749 32.0834 8.75 36.0083 8.75 40.8334C8.75 45.6584 12.6749 49.5834 17.5 49.5834C22.3251 49.5834 26.25 45.6584 26.25 40.8334C26.25 36.0083 22.3251 32.0834 17.5 32.0834ZM17.5 46.6666C14.2829 46.6666 11.6666 44.0505 11.6666 40.8332C11.6666 37.616 14.2829 35 17.5 35C20.7171 35 23.3334 37.6161 23.3334 40.8334C23.3334 44.0506 20.7171 46.6666 17.5 46.6666Z" fill="#4178E1"/>
<path d="M39.59 52.5599C38.8352 52.2665 37.995 52.6411 37.7031 53.3931C37.0494 55.0821 36.232 57.0517 35.1296 58.8561C34.7095 59.5439 34.9274 60.4412 35.6139 60.8614C35.8518 61.0067 36.1137 61.0751 36.3729 61.0751C36.8643 61.0751 37.3442 60.8272 37.6191 60.3772C38.8411 58.3749 39.7225 56.2557 40.4232 54.4471C40.7137 53.6963 40.3406 52.8518 39.59 52.5599Z" fill="#4178E1"/>
<path d="M31.367 63.2026C29.9057 64.3605 28.2453 65.2321 26.2884 65.8686C25.5222 66.1179 25.1035 66.941 25.3527 67.7072C25.5536 68.3224 26.1246 68.7141 26.7399 68.7141C26.8894 68.7141 27.0417 68.6913 27.1913 68.6429C29.4514 67.908 31.4651 66.8471 33.1785 65.4898C33.8094 64.9884 33.9162 64.0713 33.4164 63.4404C32.9122 62.811 31.9964 62.6985 31.367 63.2026Z" fill="#4178E1"/>
<path d="M44.6387 42.031C42.2319 43.3968 40.8946 45.7679 40.097 47.4314C39.7481 48.1578 40.0542 49.0294 40.7806 49.3768C40.9843 49.4751 41.1994 49.5206 41.4101 49.5206C41.9541 49.5206 42.4754 49.2159 42.726 48.6932C43.7385 46.5812 44.7725 45.3094 46.0798 44.5659C46.7791 44.1686 47.0255 43.2784 46.6267 42.5778C46.2309 41.8772 45.3436 41.6308 44.6387 42.031Z" fill="#4178E1"/>
<path d="M57.7921 38.4208C57.1298 37.9722 56.2198 38.1445 55.7669 38.811C55.287 39.5203 54.3043 40.4958 51.332 40.7621C50.5302 40.8347 49.9378 41.5425 50.0104 42.3457C50.0787 43.1034 50.7153 43.673 51.4616 43.673C51.5058 43.673 51.5499 43.6716 51.5941 43.6672C54.7515 43.3838 56.9062 42.33 58.1823 40.4457C58.6339 39.7794 58.4586 38.8722 57.7921 38.4208Z" fill="#4178E1"/>
<path d="M20.9556 67.1022C25.5571 62.1951 35 50.906 35 40.8334C35 31.0209 27.3124 23.3334 17.5 23.3334C7.68756 23.3334 0 31.0209 0 40.8334C0 53.8572 15.8252 68.9646 16.4988 69.6013C16.7794 69.8676 17.1397 70.0001 17.5 70.0001C18.5624 70.0001 19.5721 69.9631 20.5291 69.8905C21.3324 69.8292 21.9347 69.1299 21.8735 68.3267C21.8297 67.7518 21.4577 67.3035 20.9556 67.1022ZM17.5 66.4852C14.055 62.9705 2.91662 50.8309 2.91662 40.8334C2.91662 32.6558 9.32258 26.25 17.5 26.25C25.6774 26.25 32.0834 32.6558 32.0834 40.8334C32.0834 50.8309 20.945 62.9703 17.5 66.4852Z" fill="#4178E1"/>
</g>
<defs>
<clipPath id="clip0">
<rect width="70" height="70" fill="white"/>
</clipPath>
</defs>
</svg>
