<svg width="202" height="170" viewBox="0 0 202 170" fill="none" xmlns="http://www.w3.org/2000/svg">
<g clip-path="url(#clip0)">
<path d="M149.578 16.2581C148.714 16.2581 147.885 16.6014 147.274 17.2124C146.663 17.8235 146.32 18.6523 146.32 19.5165C146.316 19.9473 146.404 20.3741 146.577 20.7684C146.823 21.3595 147.239 21.8645 147.771 22.2197C148.304 22.575 148.93 22.7646 149.57 22.7646C150.21 22.7646 150.836 22.575 151.368 22.2197C151.901 21.8645 152.316 21.3595 152.562 20.7684C152.736 20.3741 152.824 19.9473 152.82 19.5165C152.82 18.6552 152.479 17.829 151.871 17.2185C151.264 16.6079 150.44 16.2626 149.578 16.2581Z" fill="#E6E6E6"/>
<path d="M133.303 0C132.659 0 132.029 0.191103 131.493 0.549142C130.957 0.907181 130.54 1.41608 130.293 2.01147C130.046 2.60687 129.982 3.26203 130.108 3.8941C130.233 4.52617 130.544 5.10676 130.999 5.56246C131.455 6.01816 132.036 6.32849 132.668 6.45422C133.3 6.57994 133.955 6.51542 134.55 6.2688C135.146 6.02217 135.655 5.60453 136.013 5.06869C136.371 4.53285 136.562 3.90287 136.562 3.25841C136.562 2.39423 136.219 1.56544 135.607 0.954367C134.996 0.343296 134.168 0 133.303 0V0Z" fill="#E6E6E6"/>
<path d="M165.836 6.49998C166.481 6.49997 167.112 6.30843 167.648 5.94963C168.184 5.59083 168.602 5.08091 168.848 4.48452C169.094 3.88812 169.158 3.23208 169.031 2.59955C168.903 1.96702 168.591 1.38646 168.134 0.931452C167.677 0.476445 167.094 0.167472 166.461 0.0436883C165.828 -0.0800949 165.172 -0.0131156 164.577 0.236138C163.982 0.485391 163.474 0.905698 163.118 1.44379C162.762 1.98189 162.574 2.61355 162.578 3.25872C162.578 3.68582 162.662 4.1087 162.826 4.50307C162.99 4.89744 163.23 5.25552 163.533 5.55672C163.836 5.85793 164.195 6.09632 164.59 6.2582C164.986 6.42007 165.409 6.50224 165.836 6.49998Z" fill="#E6E6E6"/>
<path d="M117.063 16.2581C116.199 16.2581 115.37 16.6014 114.759 17.2124C114.148 17.8235 113.804 18.6523 113.804 19.5165C113.8 19.9473 113.888 20.3741 114.062 20.7684C114.307 21.3595 114.723 21.8645 115.256 22.2197C115.788 22.575 116.414 22.7646 117.054 22.7646C117.694 22.7646 118.32 22.575 118.853 22.2197C119.385 21.8645 119.801 21.3595 120.047 20.7684C120.22 20.3741 120.308 19.9473 120.304 19.5165C120.304 18.6552 119.963 17.829 119.356 17.2185C118.748 16.6079 117.924 16.2626 117.063 16.2581Z" fill="#E6E6E6"/>
<path d="M149.578 81.2888C148.938 81.2888 148.312 81.4775 147.778 81.8313C147.244 82.1851 146.827 82.6884 146.577 83.2782C146.407 83.6797 146.32 84.1113 146.32 84.5473C146.32 84.9832 146.407 85.4148 146.577 85.8163C146.825 86.4193 147.249 86.9339 147.792 87.2937C148.336 87.6535 148.975 87.8419 149.627 87.8345C150.279 87.8271 150.914 87.6243 151.449 87.2523C151.985 86.8803 152.397 86.3562 152.631 85.7477C152.801 85.3462 152.888 84.9146 152.888 84.4787C152.888 84.0427 152.801 83.6111 152.631 83.2096C152.368 82.6245 151.938 82.1301 151.395 81.7884C150.852 81.4467 150.22 81.2729 149.578 81.2888Z" fill="#E6E6E6"/>
<path d="M149.578 48.7737C148.933 48.7703 148.301 48.9585 147.763 49.3145C147.225 49.6705 146.805 50.1782 146.556 50.7733C146.306 51.3684 146.239 52.0241 146.363 52.6572C146.487 53.2904 146.796 53.8726 147.251 54.3301C147.706 54.7875 148.287 55.0995 148.919 55.2266C149.552 55.3538 150.208 55.2902 150.804 55.0441C151.4 54.798 151.91 54.3804 152.269 53.8442C152.628 53.308 152.82 52.6773 152.82 52.0321C152.82 51.1709 152.479 50.3447 151.871 49.7341C151.264 49.1236 150.44 48.7783 149.578 48.7737Z" fill="#E6E6E6"/>
<path d="M133.303 65.0315C132.659 65.0315 132.029 65.2226 131.493 65.5806C130.957 65.9387 130.54 66.4476 130.293 67.043C130.046 67.6384 129.982 68.2935 130.108 68.9256C130.233 69.5577 130.544 70.1383 130.999 70.594C131.455 71.0497 132.036 71.36 132.668 71.4857C133.3 71.6114 133.955 71.5469 134.55 71.3003C135.146 71.0537 135.655 70.636 136.013 70.1002C136.371 69.5643 136.562 68.9344 136.562 68.2899C136.562 67.4257 136.219 66.5969 135.607 65.9859C134.996 65.3748 134.168 65.0315 133.303 65.0315Z" fill="#E6E6E6"/>
<path d="M165.836 65.0315C165.191 65.0281 164.559 65.2164 164.021 65.5723C163.483 65.9283 163.063 66.436 162.814 67.0311C162.564 67.6262 162.497 68.2819 162.621 68.9151C162.745 69.5483 163.054 70.1305 163.509 70.5879C163.964 71.0453 164.544 71.3573 165.177 71.4844C165.809 71.6116 166.466 71.5481 167.062 71.3019C167.658 71.0558 168.168 70.6382 168.527 70.102C168.886 69.5658 169.077 68.9351 169.077 68.29C169.077 67.4287 168.736 66.6025 168.129 65.9919C167.522 65.3814 166.697 65.0361 165.836 65.0315Z" fill="#E6E6E6"/>
<path d="M133.303 32.5842C132.659 32.5842 132.029 32.7753 131.493 33.1334C130.957 33.4914 130.54 34.0003 130.293 34.5957C130.046 35.1911 129.982 35.8463 130.108 36.4783C130.233 37.1104 130.544 37.691 130.999 38.1467C131.455 38.6024 132.036 38.9127 132.668 39.0384C133.3 39.1642 133.955 39.0996 134.55 38.853C135.146 38.6064 135.655 38.1888 136.013 37.6529C136.371 37.1171 136.562 36.4871 136.562 35.8426C136.562 34.9785 136.219 34.1497 135.607 33.5386C134.996 32.9275 134.168 32.5842 133.303 32.5842Z" fill="#E6E6E6"/>
<path d="M165.836 32.5843C165.191 32.5809 164.559 32.7691 164.021 33.1251C163.483 33.481 163.063 33.9887 162.814 34.5838C162.564 35.1789 162.497 35.8346 162.621 36.4678C162.745 37.101 163.054 37.6832 163.509 38.1406C163.964 38.598 164.544 38.9101 165.177 39.0372C165.809 39.1643 166.466 39.1008 167.062 38.8547C167.658 38.6086 168.168 38.1909 168.527 37.6547C168.886 37.1185 169.077 36.4879 169.077 35.8427C169.077 34.9815 168.736 34.1553 168.129 33.5447C167.522 32.9341 166.697 32.5888 165.836 32.5843Z" fill="#E6E6E6"/>
<path d="M117.063 81.2891C116.422 81.2891 115.796 81.4778 115.262 81.8316C114.729 82.1854 114.311 82.6886 114.062 83.2784C113.892 83.68 113.804 84.1115 113.804 84.5475C113.804 84.9835 113.892 85.415 114.062 85.8166C114.32 86.3985 114.743 86.8919 115.279 87.2359C115.815 87.5798 116.44 87.7593 117.077 87.752C117.713 87.7447 118.334 87.551 118.862 87.1948C119.39 86.8387 119.802 86.3357 120.047 85.748C120.217 85.3464 120.304 84.9149 120.304 84.4789C120.304 84.0429 120.217 83.6114 120.047 83.2098C119.788 82.6355 119.369 82.1485 118.839 81.8076C118.31 81.4667 117.693 81.2866 117.063 81.2891Z" fill="#E6E6E6"/>
<path d="M117.063 48.7737C116.418 48.7703 115.786 48.9585 115.248 49.3145C114.71 49.6705 114.289 50.1782 114.04 50.7733C113.791 51.3684 113.724 52.0241 113.848 52.6572C113.972 53.2904 114.281 53.8726 114.736 54.3301C115.191 54.7875 115.771 55.0995 116.404 55.2266C117.036 55.3538 117.692 55.2902 118.289 55.0441C118.885 54.798 119.395 54.3804 119.754 53.8442C120.113 53.308 120.304 52.6773 120.304 52.0321C120.304 51.1709 119.963 50.3447 119.356 49.7341C118.748 49.1236 117.924 48.7783 117.063 48.7737Z" fill="#E6E6E6"/>
<path d="M149.578 146.32C148.714 146.32 147.885 146.663 147.274 147.274C146.663 147.885 146.32 148.714 146.32 149.578C146.317 150.015 146.405 150.447 146.577 150.847C146.812 151.456 147.223 151.98 147.759 152.352C148.294 152.724 148.929 152.927 149.581 152.934C150.233 152.942 150.872 152.753 151.416 152.393C151.959 152.034 152.383 151.519 152.631 150.916C152.803 150.515 152.891 150.083 152.888 149.647C152.897 149.209 152.818 148.774 152.655 148.367C152.493 147.96 152.249 147.59 151.94 147.28C151.631 146.969 151.263 146.724 150.857 146.559C150.451 146.394 150.016 146.313 149.578 146.32Z" fill="#E6E6E6"/>
<path d="M149.578 113.805C148.933 113.801 148.301 113.99 147.763 114.346C147.225 114.701 146.805 115.209 146.556 115.804C146.306 116.399 146.239 117.055 146.363 117.688C146.487 118.321 146.796 118.904 147.251 119.361C147.706 119.818 148.287 120.131 148.919 120.258C149.552 120.385 150.208 120.321 150.804 120.075C151.4 119.829 151.91 119.411 152.269 118.875C152.628 118.339 152.82 117.708 152.82 117.063C152.82 116.202 152.479 115.376 151.871 114.765C151.264 114.155 150.44 113.809 149.578 113.805Z" fill="#E6E6E6"/>
<path d="M133.303 130.062C132.659 130.063 132.029 130.254 131.493 130.612C130.957 130.97 130.54 131.479 130.293 132.074C130.046 132.669 129.982 133.325 130.108 133.957C130.233 134.589 130.544 135.169 130.999 135.625C131.455 136.081 132.036 136.391 132.668 136.517C133.3 136.642 133.955 136.578 134.55 136.331C135.146 136.085 135.655 135.667 136.013 135.131C136.371 134.595 136.562 133.965 136.562 133.321C136.562 132.457 136.219 131.628 135.607 131.017C134.996 130.406 134.168 130.062 133.303 130.062Z" fill="#E6E6E6"/>
<path d="M165.836 130.063C165.191 130.059 164.559 130.247 164.021 130.603C163.483 130.959 163.063 131.467 162.814 132.062C162.564 132.657 162.497 133.313 162.621 133.946C162.745 134.579 163.054 135.161 163.509 135.619C163.964 136.076 164.544 136.388 165.177 136.515C165.809 136.643 166.466 136.579 167.062 136.333C167.658 136.087 168.168 135.669 168.527 135.133C168.886 134.597 169.077 133.966 169.077 133.321C169.077 132.46 168.736 131.634 168.129 131.023C167.522 130.412 166.697 130.067 165.836 130.063Z" fill="#E6E6E6"/>
<path d="M133.303 97.5469C132.659 97.5469 132.029 97.738 131.493 98.096C130.957 98.4541 130.54 98.9629 130.293 99.5583C130.046 100.154 129.982 100.809 130.108 101.441C130.233 102.073 130.544 102.654 130.999 103.109C131.455 103.565 132.036 103.875 132.668 104.001C133.3 104.127 133.955 104.062 134.55 103.816C135.146 103.569 135.655 103.151 136.013 102.616C136.371 102.08 136.562 101.45 136.562 100.805C136.562 99.9411 136.219 99.1123 135.607 98.5012C134.996 97.8902 134.168 97.5469 133.303 97.5469Z" fill="#E6E6E6"/>
<path d="M165.836 97.5469C165.191 97.5435 164.559 97.7317 164.021 98.0877C163.483 98.4437 163.063 98.9514 162.814 99.5465C162.564 100.142 162.497 100.797 162.621 101.43C162.745 102.064 163.054 102.646 163.509 103.103C163.964 103.561 164.544 103.873 165.177 104C165.809 104.127 166.466 104.063 167.062 103.817C167.658 103.571 168.168 103.154 168.527 102.617C168.886 102.081 169.077 101.451 169.077 100.805C169.077 99.9441 168.736 99.1179 168.129 98.5073C167.522 97.8967 166.697 97.5515 165.836 97.5469Z" fill="#E6E6E6"/>
<path d="M117.063 146.32C116.199 146.32 115.37 146.664 114.759 147.275C114.148 147.886 113.804 148.715 113.804 149.579C113.802 150.015 113.89 150.447 114.062 150.848C114.307 151.435 114.719 151.938 115.246 152.295C115.774 152.651 116.395 152.844 117.032 152.852C117.668 152.859 118.293 152.68 118.829 152.336C119.365 151.992 119.788 151.498 120.047 150.916C120.219 150.516 120.306 150.084 120.304 149.647C120.313 149.215 120.236 148.785 120.078 148.383C119.919 147.981 119.682 147.615 119.38 147.305C119.079 146.995 118.718 146.749 118.32 146.58C117.923 146.411 117.495 146.322 117.063 146.32Z" fill="#E6E6E6"/>
<path d="M117.063 113.805C116.418 113.801 115.786 113.99 115.248 114.346C114.71 114.701 114.289 115.209 114.04 115.804C113.791 116.399 113.724 117.055 113.848 117.688C113.972 118.321 114.281 118.904 114.736 119.361C115.191 119.818 115.771 120.131 116.404 120.258C117.036 120.385 117.692 120.321 118.289 120.075C118.885 119.829 119.395 119.411 119.754 118.875C120.113 118.339 120.304 117.708 120.304 117.063C120.304 116.202 119.963 115.376 119.356 114.765C118.748 114.155 117.924 113.809 117.063 113.805Z" fill="#E6E6E6"/>
<path d="M133.303 162.578C132.659 162.578 132.029 162.769 131.493 163.127C130.957 163.485 130.54 163.994 130.293 164.589C130.046 165.185 129.982 165.84 130.108 166.472C130.233 167.104 130.544 167.685 130.999 168.14C131.455 168.596 132.036 168.906 132.668 169.032C133.3 169.158 133.955 169.093 134.55 168.847C135.146 168.6 135.655 168.182 136.013 167.647C136.371 167.111 136.562 166.481 136.562 165.836C136.562 164.972 136.219 164.143 135.607 163.532C134.996 162.921 134.168 162.578 133.303 162.578Z" fill="#E6E6E6"/>
<path d="M165.836 162.578C165.191 162.575 164.559 162.763 164.021 163.119C163.483 163.475 163.063 163.982 162.814 164.577C162.564 165.173 162.497 165.828 162.621 166.461C162.745 167.095 163.054 167.677 163.509 168.134C163.964 168.592 164.544 168.904 165.177 169.031C165.809 169.158 166.466 169.094 167.062 168.848C167.658 168.602 168.168 168.185 168.527 167.648C168.886 167.112 169.077 166.481 169.077 165.836C169.077 164.975 168.736 164.149 168.129 163.538C167.522 162.928 166.697 162.582 165.836 162.578Z" fill="#E6E6E6"/>
<path d="M84.5472 16.2581C83.6831 16.2581 82.8543 16.6014 82.2432 17.2124C81.6321 17.8235 81.2888 18.6523 81.2888 19.5165C81.2848 19.9473 81.3724 20.3741 81.5461 20.7684C81.792 21.3595 82.2074 21.8645 82.74 22.2197C83.2726 22.575 83.8985 22.7646 84.5387 22.7646C85.1789 22.7646 85.8047 22.575 86.3373 22.2197C86.8699 21.8645 87.2853 21.3595 87.5313 20.7684C87.7049 20.3741 87.7926 19.9473 87.7885 19.5165C87.7885 18.6552 87.4476 17.829 86.8402 17.2185C86.2328 16.6079 85.4084 16.2626 84.5472 16.2581Z" fill="#E6E6E6"/>
<path d="M68.2895 4.51506e-05C67.6443 -0.00335054 67.0127 0.184862 66.4746 0.54083C65.9365 0.896799 65.5162 1.4045 65.2669 1.99959C65.0176 2.59468 64.9507 3.25037 65.0745 3.88357C65.1982 4.51676 65.5072 5.09896 65.9622 5.55637C66.4172 6.01379 66.9978 6.32583 67.6303 6.45295C68.2628 6.58007 68.9189 6.51656 69.5153 6.27045C70.1117 6.02434 70.6216 5.60671 70.9804 5.07051C71.3392 4.5343 71.5307 3.90364 71.5307 3.25846C71.5308 2.39724 71.1898 1.57104 70.5824 0.960455C69.9751 0.349874 69.1507 0.0045779 68.2895 4.51506e-05Z" fill="#E6E6E6"/>
<path d="M100.805 4.51506e-05C100.16 -0.00335054 99.5281 0.184862 98.9901 0.54083C98.452 0.896799 98.0317 1.4045 97.7824 1.99959C97.5332 2.59468 97.4662 3.25037 97.59 3.88357C97.7137 4.51676 98.0227 5.09896 98.4777 5.55637C98.9327 6.01379 99.5133 6.32583 100.146 6.45295C100.778 6.58007 101.434 6.51656 102.031 6.27045C102.627 6.02434 103.137 5.60671 103.496 5.07051C103.855 4.5343 104.046 3.90364 104.046 3.25846C104.046 2.39724 103.705 1.57104 103.098 0.960455C102.491 0.349874 101.666 0.0045779 100.805 4.51506e-05Z" fill="#E6E6E6"/>
<path d="M52.0317 16.2581C51.1675 16.2581 50.3387 16.6014 49.7276 17.2124C49.1166 17.8235 48.7733 18.6523 48.7733 19.5165C48.7692 19.9473 48.8569 20.3741 49.0305 20.7684C49.2764 21.3595 49.6919 21.8645 50.2245 22.2197C50.757 22.575 51.3829 22.7646 52.0231 22.7646C52.6633 22.7646 53.2892 22.575 53.8218 22.2197C54.3543 21.8645 54.7698 21.3595 55.0157 20.7684C55.1893 20.3741 55.277 19.9473 55.2729 19.5165C55.273 18.6552 54.932 17.829 54.3246 17.2185C53.7173 16.6079 52.8929 16.2626 52.0317 16.2581Z" fill="#E6E6E6"/>
<path d="M84.5472 81.2891C83.9068 81.2891 83.2807 81.4777 82.7469 81.8315C82.2131 82.1853 81.7955 82.6886 81.546 83.2784C81.3762 83.68 81.2888 84.1115 81.2888 84.5475C81.2888 84.9834 81.3762 85.415 81.546 85.8165C81.8134 86.3786 82.2362 86.8523 82.7643 87.1817C83.2925 87.5111 83.9039 87.6823 84.5263 87.675C85.1487 87.6678 85.756 87.4825 86.2763 87.141C86.7967 86.7995 87.2084 86.3161 87.4626 85.7479C87.6324 85.3464 87.7199 84.9148 87.7199 84.4789C87.7199 84.0429 87.6324 83.6114 87.4626 83.2098C87.2089 82.6461 86.8001 82.1661 86.2839 81.826C85.7677 81.4859 85.1653 81.2997 84.5472 81.2891Z" fill="#E6E6E6"/>
<path d="M84.5472 48.7737C83.9021 48.7703 83.2704 48.9585 82.7323 49.3145C82.1942 49.6705 81.7739 50.1782 81.5246 50.7733C81.2754 51.3684 81.2084 52.0241 81.3322 52.6572C81.456 53.2904 81.765 53.8726 82.22 54.3301C82.675 54.7875 83.2555 55.0995 83.8881 55.2266C84.5206 55.3538 85.1766 55.2902 85.773 55.0441C86.3694 54.798 86.8793 54.3804 87.2381 53.8442C87.5969 53.308 87.7885 52.6773 87.7885 52.0321C87.7885 51.1709 87.4476 50.3447 86.8402 49.7341C86.2328 49.1236 85.4084 48.7783 84.5472 48.7737Z" fill="#E6E6E6"/>
<path d="M68.2895 65.0315C67.6443 65.0281 67.0127 65.2164 66.4746 65.5723C65.9365 65.9283 65.5162 66.436 65.2669 67.0311C65.0176 67.6262 64.9507 68.2819 65.0745 68.9151C65.1982 69.5483 65.5072 70.1305 65.9622 70.5879C66.4172 71.0453 66.9978 71.3573 67.6303 71.4844C68.2628 71.6116 68.9189 71.5481 69.5153 71.3019C70.1117 71.0558 70.6216 70.6382 70.9804 70.102C71.3392 69.5658 71.5307 68.9351 71.5307 68.29C71.5308 67.4287 71.1898 66.6025 70.5824 65.9919C69.9751 65.3814 69.1507 65.0361 68.2895 65.0315Z" fill="#E6E6E6"/>
<path d="M100.805 65.0315C100.16 65.0281 99.5281 65.2164 98.9901 65.5723C98.452 65.9283 98.0317 66.436 97.7824 67.0311C97.5332 67.6262 97.4662 68.2819 97.59 68.9151C97.7137 69.5483 98.0227 70.1305 98.4777 70.5879C98.9327 71.0453 99.5133 71.3573 100.146 71.4844C100.778 71.6116 101.434 71.5481 102.031 71.3019C102.627 71.0558 103.137 70.6382 103.496 70.102C103.855 69.5658 104.046 68.9351 104.046 68.29C104.046 67.4287 103.705 66.6025 103.098 65.9919C102.491 65.3814 101.666 65.0361 100.805 65.0315Z" fill="#E6E6E6"/>
<path d="M68.2895 32.5843C67.6443 32.5809 67.0127 32.7691 66.4746 33.1251C65.9365 33.481 65.5162 33.9887 65.2669 34.5838C65.0176 35.1789 64.9507 35.8346 65.0745 36.4678C65.1982 37.101 65.5072 37.6832 65.9622 38.1406C66.4172 38.598 66.9978 38.9101 67.6303 39.0372C68.2628 39.1643 68.9189 39.1008 69.5153 38.8547C70.1117 38.6086 70.6216 38.1909 70.9804 37.6547C71.3392 37.1185 71.5307 36.4879 71.5307 35.8427C71.5308 34.9815 71.1898 34.1553 70.5824 33.5447C69.9751 32.9341 69.1507 32.5888 68.2895 32.5843Z" fill="#E6E6E6"/>
<path d="M100.805 32.5843C100.16 32.5809 99.5281 32.7691 98.9901 33.1251C98.452 33.481 98.0317 33.9887 97.7824 34.5838C97.5332 35.1789 97.4662 35.8346 97.59 36.4678C97.7137 37.101 98.0227 37.6832 98.4777 38.1406C98.9327 38.598 99.5133 38.9101 100.146 39.0372C100.778 39.1643 101.434 39.1008 102.031 38.8547C102.627 38.6086 103.137 38.1909 103.496 37.6547C103.855 37.1185 104.046 36.4879 104.046 35.8427C104.046 34.9815 103.705 34.1553 103.098 33.5447C102.491 32.9341 101.666 32.5888 100.805 32.5843Z" fill="#E6E6E6"/>
<path d="M52.0317 81.2891C51.3913 81.2891 50.7652 81.4777 50.2314 81.8315C49.6976 82.1853 49.28 82.6886 49.0305 83.2784C48.8607 83.68 48.7733 84.1115 48.7733 84.5475C48.7733 84.9834 48.8607 85.415 49.0305 85.8165C49.2824 86.4013 49.7001 86.8994 50.2319 87.2494C50.7637 87.5994 51.3865 87.7859 52.0231 87.7859C52.6598 87.7859 53.2825 87.5994 53.8144 87.2494C54.3462 86.8994 54.7639 86.4013 55.0157 85.8165C55.1855 85.415 55.273 84.9834 55.273 84.5475C55.273 84.1115 55.1855 83.68 55.0157 83.2784C54.7675 82.6913 54.3524 82.1899 53.822 81.8363C53.2916 81.4827 52.6692 81.2924 52.0317 81.2891Z" fill="#E6E6E6"/>
<path d="M52.0317 48.7737C51.3865 48.7703 50.7548 48.9585 50.2167 49.3145C49.6786 49.6705 49.2583 50.1782 49.0091 50.7733C48.7598 51.3684 48.6929 52.0241 48.8166 52.6572C48.9404 53.2904 49.2494 53.8726 49.7044 54.3301C50.1594 54.7875 50.74 55.0995 51.3725 55.2266C52.005 55.3538 52.6611 55.2902 53.2575 55.0441C53.8539 54.798 54.3638 54.3804 54.7226 53.8442C55.0814 53.308 55.2729 52.6773 55.2729 52.0321C55.2729 51.1709 54.932 50.3447 54.3246 49.7341C53.7173 49.1236 52.8929 48.7783 52.0317 48.7737Z" fill="#E6E6E6"/>
<path d="M84.5472 146.32C83.683 146.32 82.8542 146.664 82.2432 147.275C81.6321 147.886 81.2888 148.715 81.2888 149.579C81.2864 150.015 81.374 150.447 81.546 150.848C81.8003 151.416 82.212 151.899 82.7323 152.241C83.2527 152.582 83.86 152.768 84.4824 152.775C85.1048 152.782 85.7162 152.611 86.2444 152.282C86.7725 151.952 87.1953 151.478 87.4626 150.916C87.6347 150.516 87.7223 150.084 87.7199 149.647C87.7383 148.786 87.4149 147.952 86.8203 147.329C86.2257 146.705 85.4085 146.343 84.5472 146.32Z" fill="#E6E6E6"/>
<path d="M84.5472 113.805C83.9021 113.801 83.2704 113.99 82.7323 114.346C82.1942 114.701 81.7739 115.209 81.5246 115.804C81.2754 116.399 81.2084 117.055 81.3322 117.688C81.456 118.321 81.765 118.904 82.22 119.361C82.675 119.818 83.2555 120.131 83.8881 120.258C84.5206 120.385 85.1766 120.321 85.773 120.075C86.3694 119.829 86.8793 119.411 87.2381 118.875C87.5969 118.339 87.7885 117.708 87.7885 117.063C87.7885 116.202 87.4476 115.376 86.8402 114.765C86.2328 114.155 85.4084 113.809 84.5472 113.805Z" fill="#E6E6E6"/>
<path d="M68.2895 130.063C67.6443 130.059 67.0127 130.247 66.4746 130.603C65.9365 130.959 65.5162 131.467 65.2669 132.062C65.0176 132.657 64.9507 133.313 65.0745 133.946C65.1982 134.579 65.5072 135.161 65.9622 135.619C66.4172 136.076 66.9978 136.388 67.6303 136.515C68.2628 136.643 68.9189 136.579 69.5153 136.333C70.1117 136.087 70.6216 135.669 70.9804 135.133C71.3392 134.597 71.5307 133.966 71.5307 133.321C71.5308 132.46 71.1898 131.634 70.5824 131.023C69.9751 130.412 69.1507 130.067 68.2895 130.063Z" fill="#E6E6E6"/>
<path d="M100.805 130.063C100.16 130.059 99.5281 130.247 98.9901 130.603C98.452 130.959 98.0317 131.467 97.7824 132.062C97.5332 132.657 97.4662 133.313 97.59 133.946C97.7137 134.579 98.0227 135.161 98.4777 135.619C98.9327 136.076 99.5133 136.388 100.146 136.515C100.778 136.643 101.434 136.579 102.031 136.333C102.627 136.087 103.137 135.669 103.496 135.133C103.855 134.597 104.046 133.966 104.046 133.321C104.046 132.46 103.705 131.634 103.098 131.023C102.491 130.412 101.666 130.067 100.805 130.063Z" fill="#E6E6E6"/>
<path d="M68.2895 97.5469C67.6443 97.5435 67.0127 97.7317 66.4746 98.0877C65.9365 98.4437 65.5162 98.9514 65.2669 99.5465C65.0176 100.142 64.9507 100.797 65.0745 101.43C65.1982 102.064 65.5072 102.646 65.9622 103.103C66.4172 103.561 66.9978 103.873 67.6303 104C68.2628 104.127 68.9189 104.063 69.5153 103.817C70.1117 103.571 70.6216 103.154 70.9804 102.617C71.3392 102.081 71.5307 101.451 71.5307 100.805C71.5308 99.9441 71.1898 99.1179 70.5824 98.5073C69.9751 97.8967 69.1507 97.5515 68.2895 97.5469Z" fill="#E6E6E6"/>
<path d="M100.805 97.5469C100.16 97.5435 99.5281 97.7317 98.9901 98.0877C98.452 98.4437 98.0317 98.9514 97.7824 99.5465C97.5332 100.142 97.4662 100.797 97.59 101.43C97.7137 102.064 98.0227 102.646 98.4777 103.103C98.9327 103.561 99.5133 103.873 100.146 104C100.778 104.127 101.434 104.063 102.031 103.817C102.627 103.571 103.137 103.154 103.496 102.617C103.855 102.081 104.046 101.451 104.046 100.805C104.046 99.9441 103.705 99.1179 103.098 98.5073C102.491 97.8967 101.666 97.5515 100.805 97.5469Z" fill="#E6E6E6"/>
<path d="M52.0317 146.32C51.1675 146.32 50.3387 146.664 49.7277 147.275C49.1166 147.886 48.7733 148.715 48.7733 149.579C48.7709 150.015 48.8585 150.447 49.0305 150.848C49.2824 151.433 49.7001 151.931 50.2319 152.281C50.7637 152.631 51.3865 152.817 52.0231 152.817C52.6598 152.817 53.2825 152.631 53.8144 152.281C54.3462 151.931 54.7639 151.433 55.0157 150.848C55.1878 150.447 55.2754 150.015 55.273 149.579C55.273 148.718 54.932 147.891 54.3247 147.281C53.7173 146.67 52.8929 146.325 52.0317 146.32Z" fill="#E6E6E6"/>
<path d="M52.0317 113.805C51.3865 113.801 50.7548 113.99 50.2167 114.346C49.6786 114.701 49.2583 115.209 49.0091 115.804C48.7598 116.399 48.6929 117.055 48.8166 117.688C48.9404 118.321 49.2494 118.904 49.7044 119.361C50.1594 119.818 50.74 120.131 51.3725 120.258C52.005 120.385 52.6611 120.321 53.2575 120.075C53.8539 119.829 54.3638 119.411 54.7226 118.875C55.0814 118.339 55.2729 117.708 55.2729 117.063C55.2729 116.202 54.932 115.376 54.3246 114.765C53.7173 114.155 52.8929 113.809 52.0317 113.805Z" fill="#E6E6E6"/>
<path d="M68.2895 162.578C67.6443 162.575 67.0127 162.763 66.4746 163.119C65.9365 163.475 65.5162 163.982 65.2669 164.577C65.0176 165.173 64.9507 165.828 65.0745 166.461C65.1982 167.095 65.5072 167.677 65.9622 168.134C66.4172 168.592 66.9978 168.904 67.6303 169.031C68.2628 169.158 68.9189 169.094 69.5153 168.848C70.1117 168.602 70.6216 168.185 70.9804 167.648C71.3392 167.112 71.5307 166.481 71.5307 165.836C71.5308 164.975 71.1898 164.149 70.5824 163.538C69.9751 162.928 69.1507 162.582 68.2895 162.578Z" fill="#E6E6E6"/>
<path d="M100.805 162.578C100.16 162.575 99.5281 162.763 98.9901 163.119C98.452 163.475 98.0317 163.982 97.7824 164.577C97.5332 165.173 97.4662 165.828 97.59 166.461C97.7137 167.095 98.0227 167.677 98.4777 168.134C98.9327 168.592 99.5133 168.904 100.146 169.031C100.778 169.158 101.434 169.094 102.031 168.848C102.627 168.602 103.137 168.185 103.496 167.648C103.855 167.112 104.046 166.481 104.046 165.836C104.046 164.975 103.705 164.149 103.098 163.538C102.491 162.928 101.666 162.582 100.805 162.578Z" fill="#E6E6E6"/>
<path d="M19.5162 16.2581C18.652 16.2581 17.8232 16.6014 17.2121 17.2124C16.6011 17.8235 16.2578 18.6523 16.2578 19.5165C16.2537 19.9473 16.3414 20.3741 16.515 20.7684C16.7609 21.3595 17.1764 21.8645 17.709 22.2197C18.2415 22.575 18.8674 22.7646 19.5076 22.7646C20.1478 22.7646 20.7737 22.575 21.3062 22.2197C21.8388 21.8645 22.2543 21.3595 22.5002 20.7684C22.6738 20.3741 22.7615 19.9473 22.7574 19.5165C22.7575 18.6552 22.4165 17.829 21.8091 17.2185C21.2018 16.6079 20.3774 16.2626 19.5162 16.2581Z" fill="#E6E6E6"/>
<path d="M3.25933 4.51506e-05C2.61416 -0.00335054 1.9825 0.184862 1.4444 0.54083C0.906308 0.896799 0.486001 1.4045 0.236748 1.99959C-0.0125053 2.59468 -0.0794845 3.25037 0.0442987 3.88357C0.168082 4.51676 0.477055 5.09896 0.932062 5.55637C1.38707 6.01379 1.96763 6.32583 2.60016 6.45295C3.23269 6.58007 3.88873 6.51656 4.48513 6.27045C5.08152 6.02434 5.59143 5.60671 5.95024 5.07051C6.30904 4.5343 6.50058 3.90364 6.50059 3.25846C6.5006 2.39724 6.15966 1.57104 5.5523 0.960455C4.94493 0.349874 4.12054 0.0045779 3.25933 4.51506e-05Z" fill="#E6E6E6"/>
<path d="M35.7739 4.51506e-05C35.1287 -0.00335054 34.4971 0.184862 33.959 0.54083C33.4209 0.896799 33.0006 1.4045 32.7513 1.99959C32.5021 2.59468 32.4351 3.25037 32.5589 3.88357C32.6827 4.51676 32.9916 5.09896 33.4466 5.55637C33.9017 6.01379 34.4822 6.32583 35.1148 6.45295C35.7473 6.58007 36.4033 6.51656 36.9997 6.27045C37.5961 6.02434 38.106 5.60671 38.4648 5.07051C38.8236 4.5343 39.0152 3.90364 39.0152 3.25846C39.0152 2.39724 38.6743 1.57104 38.0669 0.960455C37.4595 0.349874 36.6351 0.0045779 35.7739 4.51506e-05Z" fill="#E6E6E6"/>
<path d="M19.5162 81.2891C18.8758 81.2891 18.2496 81.4777 17.7158 81.8315C17.1821 82.1853 16.7644 82.6886 16.515 83.2784C16.3452 83.68 16.2577 84.1115 16.2577 84.5475C16.2577 84.9834 16.3452 85.415 16.515 85.8165C16.7669 86.4013 17.1845 86.8994 17.7163 87.2494C18.2482 87.5994 18.8709 87.7859 19.5076 87.7859C20.1442 87.7859 20.767 87.5994 21.2988 87.2494C21.8307 86.8994 22.2483 86.4013 22.5002 85.8165C22.67 85.415 22.7575 84.9834 22.7575 84.5475C22.7575 84.1115 22.67 83.68 22.5002 83.2784C22.2538 82.69 21.8392 82.1873 21.3084 81.8334C20.7776 81.4795 20.1541 81.2902 19.5162 81.2891Z" fill="#E6E6E6"/>
<path d="M19.5162 48.7737C18.871 48.7703 18.2393 48.9585 17.7012 49.3145C17.1631 49.6705 16.7428 50.1782 16.4936 50.7733C16.2443 51.3684 16.1774 52.0241 16.3011 52.6572C16.4249 53.2904 16.7339 53.8726 17.1889 54.3301C17.6439 54.7875 18.2245 55.0995 18.857 55.2266C19.4895 55.3538 20.1456 55.2902 20.742 55.0441C21.3384 54.798 21.8483 54.3804 22.2071 53.8442C22.5659 53.308 22.7574 52.6773 22.7574 52.0321C22.7574 51.1709 22.4165 50.3447 21.8091 49.7341C21.2018 49.1236 20.3774 48.7783 19.5162 48.7737Z" fill="#E6E6E6"/>
<path d="M3.25841 65.0315C2.61324 65.0281 1.98158 65.2164 1.44349 65.5723C0.905393 65.9283 0.485086 66.436 0.235833 67.0311C-0.0134208 67.6262 -0.0804 68.2819 0.0433831 68.9151C0.167166 69.5483 0.47614 70.1305 0.931147 70.5879C1.38615 71.0453 1.96671 71.3573 2.59925 71.4844C3.23178 71.6116 3.88781 71.5481 4.48421 71.3019C5.08061 71.0558 5.59052 70.6382 5.94932 70.102C6.30813 69.5658 6.49967 68.9351 6.49968 68.29C6.49969 67.4287 6.15875 66.6025 5.55138 65.9919C4.94401 65.3814 4.11962 65.0361 3.25841 65.0315Z" fill="#E6E6E6"/>
<path d="M35.7739 65.0315C35.1287 65.0281 34.4971 65.2164 33.959 65.5723C33.4209 65.9283 33.0006 66.436 32.7513 67.0311C32.5021 67.6262 32.4351 68.2819 32.5589 68.9151C32.6827 69.5483 32.9916 70.1305 33.4466 70.5879C33.9017 71.0453 34.4822 71.3573 35.1148 71.4844C35.7473 71.6116 36.4033 71.5481 36.9997 71.3019C37.5961 71.0558 38.106 70.6382 38.4648 70.102C38.8236 69.5658 39.0152 68.9351 39.0152 68.29C39.0152 67.4287 38.6743 66.6025 38.0669 65.9919C37.4595 65.3814 36.6351 65.0361 35.7739 65.0315Z" fill="#E6E6E6"/>
<path d="M3.25841 32.5843C2.61324 32.5809 1.98158 32.7691 1.44349 33.1251C0.905393 33.481 0.485086 33.9887 0.235833 34.5838C-0.0134208 35.1789 -0.0804 35.8346 0.0433831 36.4678C0.167166 37.101 0.47614 37.6832 0.931147 38.1406C1.38615 38.598 1.96671 38.9101 2.59925 39.0372C3.23178 39.1643 3.88781 39.1008 4.48421 38.8547C5.08061 38.6086 5.59052 38.1909 5.94932 37.6547C6.30813 37.1185 6.49967 36.4879 6.49968 35.8427C6.49969 34.9815 6.15875 34.1553 5.55138 33.5447C4.94401 32.9341 4.11962 32.5888 3.25841 32.5843Z" fill="#E6E6E6"/>
<path d="M35.7739 32.5843C35.1287 32.5809 34.4971 32.7691 33.959 33.1251C33.4209 33.481 33.0006 33.9887 32.7513 34.5838C32.5021 35.1789 32.4351 35.8346 32.5589 36.4678C32.6827 37.101 32.9916 37.6832 33.4466 38.1406C33.9017 38.598 34.4822 38.9101 35.1148 39.0372C35.7473 39.1643 36.4033 39.1008 36.9997 38.8547C37.5961 38.6086 38.106 38.1909 38.4648 37.6547C38.8236 37.1185 39.0152 36.4879 39.0152 35.8427C39.0152 34.9815 38.6743 34.1553 38.0669 33.5447C37.4595 32.9341 36.6351 32.5888 35.7739 32.5843Z" fill="#E6E6E6"/>
<path d="M19.5162 146.32C18.652 146.32 17.8232 146.664 17.2121 147.275C16.601 147.886 16.2577 148.715 16.2577 149.579C16.2553 150.015 16.3429 150.447 16.515 150.848C16.7669 151.433 17.1845 151.931 17.7163 152.281C18.2482 152.631 18.8709 152.817 19.5076 152.817C20.1442 152.817 20.767 152.631 21.2988 152.281C21.8307 151.931 22.2483 151.433 22.5002 150.848C22.6723 150.447 22.7598 150.015 22.7574 149.579C22.7574 148.718 22.4165 147.891 21.8091 147.281C21.2018 146.67 20.3774 146.325 19.5162 146.32Z" fill="#E6E6E6"/>
<path d="M19.5162 113.805C18.871 113.801 18.2393 113.99 17.7012 114.346C17.1631 114.701 16.7428 115.209 16.4936 115.804C16.2443 116.399 16.1774 117.055 16.3011 117.688C16.4249 118.321 16.7339 118.904 17.1889 119.361C17.6439 119.818 18.2245 120.131 18.857 120.258C19.4895 120.385 20.1456 120.321 20.742 120.075C21.3384 119.829 21.8483 119.411 22.2071 118.875C22.5659 118.339 22.7574 117.708 22.7574 117.063C22.7574 116.202 22.4165 115.376 21.8091 114.765C21.2018 114.155 20.3774 113.809 19.5162 113.805Z" fill="#E6E6E6"/>
<path d="M3.25841 130.063C2.61324 130.059 1.98158 130.247 1.44349 130.603C0.905393 130.959 0.485086 131.467 0.235833 132.062C-0.0134208 132.657 -0.0804 133.313 0.0433831 133.946C0.167166 134.579 0.47614 135.161 0.931147 135.619C1.38615 136.076 1.96671 136.388 2.59925 136.515C3.23178 136.643 3.88781 136.579 4.48421 136.333C5.08061 136.087 5.59052 135.669 5.94932 135.133C6.30813 134.597 6.49967 133.966 6.49968 133.321C6.49969 132.46 6.15875 131.634 5.55138 131.023C4.94401 130.412 4.11962 130.067 3.25841 130.063Z" fill="#E6E6E6"/>
<path d="M35.7739 130.063C35.1287 130.059 34.4971 130.247 33.959 130.603C33.4209 130.959 33.0006 131.467 32.7513 132.062C32.5021 132.657 32.4351 133.313 32.5589 133.946C32.6827 134.579 32.9916 135.161 33.4466 135.619C33.9017 136.076 34.4822 136.388 35.1148 136.515C35.7473 136.643 36.4033 136.579 36.9997 136.333C37.5961 136.087 38.106 135.669 38.4648 135.133C38.8236 134.597 39.0152 133.966 39.0152 133.321C39.0152 132.46 38.6743 131.634 38.0669 131.023C37.4595 130.412 36.6351 130.067 35.7739 130.063Z" fill="#E6E6E6"/>
<path d="M3.25841 97.5469C2.61324 97.5435 1.98158 97.7317 1.44349 98.0877C0.905393 98.4437 0.485086 98.9514 0.235833 99.5465C-0.0134208 100.142 -0.0804 100.797 0.0433831 101.43C0.167166 102.064 0.47614 102.646 0.931147 103.103C1.38615 103.561 1.96671 103.873 2.59925 104C3.23178 104.127 3.88781 104.063 4.48421 103.817C5.08061 103.571 5.59052 103.154 5.94932 102.617C6.30813 102.081 6.49967 101.451 6.49968 100.805C6.49969 99.9441 6.15875 99.1179 5.55138 98.5073C4.94401 97.8967 4.11962 97.5515 3.25841 97.5469Z" fill="#E6E6E6"/>
<path d="M35.7739 97.5469C35.1287 97.5435 34.4971 97.7317 33.959 98.0877C33.4209 98.4437 33.0006 98.9514 32.7513 99.5465C32.5021 100.142 32.4351 100.797 32.5589 101.43C32.6827 102.064 32.9916 102.646 33.4466 103.103C33.9017 103.561 34.4822 103.873 35.1148 104C35.7473 104.127 36.4033 104.063 36.9997 103.817C37.5961 103.571 38.106 103.154 38.4648 102.617C38.8236 102.081 39.0152 101.451 39.0152 100.805C39.0152 99.9441 38.6743 99.1179 38.0669 98.5073C37.4595 97.8967 36.6351 97.5515 35.7739 97.5469Z" fill="#E6E6E6"/>
<path d="M3.25841 162.578C2.61324 162.575 1.98158 162.763 1.44349 163.119C0.905393 163.475 0.485086 163.982 0.235833 164.577C-0.0134208 165.173 -0.0804 165.828 0.0433831 166.461C0.167166 167.095 0.47614 167.677 0.931147 168.134C1.38615 168.592 1.96671 168.904 2.59925 169.031C3.23178 169.158 3.88781 169.094 4.48421 168.848C5.08061 168.602 5.59052 168.185 5.94932 167.648C6.30813 167.112 6.49967 166.481 6.49968 165.836C6.49969 164.975 6.15875 164.149 5.55138 163.538C4.94401 162.928 4.11962 162.582 3.25841 162.578Z" fill="#E6E6E6"/>
<path d="M35.7739 162.578C35.1287 162.575 34.4971 162.763 33.959 163.119C33.4209 163.475 33.0006 163.982 32.7513 164.577C32.5021 165.173 32.4351 165.828 32.5589 166.461C32.6827 167.095 32.9916 167.677 33.4466 168.134C33.9017 168.592 34.4822 168.904 35.1148 169.031C35.7473 169.158 36.4033 169.094 36.9997 168.848C37.5961 168.602 38.106 168.185 38.4648 167.648C38.8236 167.112 39.0152 166.481 39.0152 165.836C39.0152 164.975 38.6743 164.149 38.0669 163.538C37.4595 162.928 36.6351 162.582 35.7739 162.578Z" fill="#E6E6E6"/>
</g>
<defs>
<clipPath id="clip0">
<rect width="201.49" height="169.095" fill="white"/>
</clipPath>
</defs>
</svg>
