<?xml version="1.0"?>
<svg xmlns="http://www.w3.org/2000/svg" xmlns:xlink="http://www.w3.org/1999/xlink" xmlns:svgjs="http://svgjs.com/svgjs" version="1.1" width="512" height="512" x="0" y="0" viewBox="0 0 512 512" style="enable-background:new 0 0 512 512" xml:space="preserve" class=""><g><g xmlns="http://www.w3.org/2000/svg"><g><path d="m499.5 85.388h-93.688v-24.72c0-6.893-5.607-12.5-12.5-12.5h-164.312c-4.142 0-7.5 3.358-7.5 7.5s3.358 7.5 7.5 7.5h161.813v57.251h-269.626v-57.252h72.813c4.142 0 7.5-3.358 7.5-7.5s-3.358-7.5-7.5-7.5h-75.313c-6.893 0-12.5 5.607-12.5 12.5v24.72h-93.687c-6.893 0-12.5 5.607-12.5 12.5v25.031c0 6.893 5.607 12.5 12.5 12.5h5.433v315.914c0 6.893 5.607 12.5 12.5 12.5h451.134c6.893 0 12.5-5.607 12.5-12.5v-315.914h5.433c6.893 0 12.5-5.607 12.5-12.5v-25.03c0-6.893-5.607-12.5-12.5-12.5zm-484.5 15h91.187v20.031h-91.187zm134.976 348.445h-76.956v-76.956h18.845v17.123c0 5.238 4.262 9.5 9.5 9.5h20.266c5.238 0 9.5-4.262 9.5-9.5v-17.124h18.845zm-7.043-142.289h20.266c5.238 0 9.5-4.262 9.5-9.5v-17.123h18.845v76.956h-.223-76.733v-76.956h18.845v17.123c0 5.238 4.262 9.5 9.5 9.5zm5.5-15v-11.623h9.266v11.623zm-32.302 80.332v11.624h-9.266v-11.624h.223zm125.801 76.957h-76.956v-76.956h18.845v17.123c0 5.238 4.262 9.5 9.5 9.5h20.266c5.238 0 9.5-4.262 9.5-9.5v-17.124h18.845zm-7.043-142.289h20.266c5.238 0 9.5-4.262 9.5-9.5v-17.123h18.845v76.956h-.224-76.732v-76.956h18.845v17.123c0 5.238 4.262 9.5 9.5 9.5zm5.5-15v-11.623h9.266v11.623zm-32.302 80.332v11.624h-9.266v-11.624h.223zm230.893 76.957h-59.48v-25h59.48zm0-40h-59.48v-25h59.48zm0-40h-59.48v-25h59.48zm40.087 80h-25.087v-156.833c0-4.142-3.357-7.5-7.5-7.5s-7.5 3.358-7.5 7.5v36.833h-61.98c-6.893 0-12.5 5.607-12.5 12.5v30c0 1.778.379 3.467 1.051 5-.672 1.533-1.051 3.222-1.051 5v30c0 1.778.379 3.467 1.051 5-.672 1.533-1.051 3.222-1.051 5v27.5h-15.612v-22.833c0-4.142-3.357-7.5-7.5-7.5s-7.5 3.358-7.5 7.5v22.833h-76.956v-76.956h18.845v17.123c0 5.238 4.262 9.5 9.5 9.5h20.267c5.238 0 9.5-4.262 9.5-9.5v-17.124h18.845v19.124c0 4.142 3.357 7.5 7.5 7.5s7.5-3.358 7.5-7.5v-23.624c0-5.79-4.71-10.5-10.5-10.5h-39.889v-81.456c0-5.79-4.71-10.5-10.5-10.5h-177.912c-5.79 0-10.5 4.71-10.5 10.5v81.456h-.223-26.345v-137.165h365.96v37.289c0 4.142 3.357 7.5 7.5 7.5s7.5-3.358 7.5-7.5v-72.63c0-6.893-5.607-12.5-12.5-12.5h-370.96c-6.893 0-12.5 5.607-12.5 12.5v264.462h-25.087v-313.414h446.134zm-188.291-65.333v-11.624h.224 9.043v11.624zm-217.756-178.789v-17.841h365.96v17.841zm423.98-84.293h-91.188v-20.031h91.188z" fill="#248afd" data-original="#000000" style="" class=""/><path d="m122.613 407.5h-22.231c-4.142 0-7.5 3.358-7.5 7.5s3.358 7.5 7.5 7.5h22.231c4.142 0 7.5-3.358 7.5-7.5s-3.358-7.5-7.5-7.5z" fill="#248afd" data-original="#000000" style="" class=""/><path d="m214.569 407.5h-22.231c-4.142 0-7.5 3.358-7.5 7.5s3.358 7.5 7.5 7.5h22.231c4.142 0 7.5-3.358 7.5-7.5s-3.358-7.5-7.5-7.5z" fill="#248afd" data-original="#000000" style="" class=""/><path d="m306.525 407.5h-22.231c-4.143 0-7.5 3.358-7.5 7.5s3.357 7.5 7.5 7.5h22.231c4.143 0 7.5-3.358 7.5-7.5s-3.357-7.5-7.5-7.5z" fill="#248afd" data-original="#000000" style="" class=""/><path d="m141.951 330.544h22.231c4.142 0 7.5-3.358 7.5-7.5s-3.358-7.5-7.5-7.5h-22.231c-4.142 0-7.5 3.358-7.5 7.5s3.358 7.5 7.5 7.5z" fill="#248afd" data-original="#000000" style="" class=""/><path d="m233.907 330.544h22.231c4.143 0 7.5-3.358 7.5-7.5s-3.357-7.5-7.5-7.5h-22.231c-4.142 0-7.5 3.358-7.5 7.5s3.358 7.5 7.5 7.5z" fill="#248afd" data-original="#000000" style="" class=""/><path d="m183.912 91.793c0 4.142 3.358 7.5 7.5 7.5h129.176c4.143 0 7.5-3.358 7.5-7.5s-3.357-7.5-7.5-7.5h-129.176c-4.142 0-7.5 3.358-7.5 7.5z" fill="#248afd" data-original="#000000" style="" class=""/></g></g></g></svg>
