<?xml version="1.0"?>
<svg xmlns="http://www.w3.org/2000/svg" xmlns:xlink="http://www.w3.org/1999/xlink" xmlns:svgjs="http://svgjs.com/svgjs" version="1.1" width="512" height="512" x="0" y="0" viewBox="0 0 508.148 508.148" style="enable-background:new 0 0 512 512" xml:space="preserve"><g>
<g xmlns="http://www.w3.org/2000/svg">
	<g>
		<polygon style="" points="46.816,182.488 31.816,182.488 31.816,31.816 63.178,31.816 63.178,46.816 46.816,46.816       " fill="#248afd" data-original="#000000"/>
	</g>
	<g>
		<rect x="31.816" y="230.212" style="" width="15" height="15.908" fill="#248afd" data-original="#000000"/>
	</g>
	<g>
		<rect x="357.476" y="230.666" style="" width="15.908" height="15" fill="#248afd" data-original="#000000"/>
	</g>
	<g>
		<rect x="150.672" y="294.299" style="" width="47.724" height="15" fill="#248afd" data-original="#000000"/>
	</g>
	<g>
		<rect x="150.672" y="262.482" style="" width="15.908" height="15" fill="#248afd" data-original="#000000"/>
	</g>
	<g>
		<path style="" d="M508.148,254.074c0-38.039-14.785-73.817-41.632-100.744l-10.623,10.592    c24.024,24.095,37.255,56.111,37.255,90.152c0,62.15-44.356,115.041-105.482,125.766c-14.639,2.59-29.822,2.592-44.484-0.002    c-29.239-5.131-55.941-20.497-75.204-43.29c-19.517-22.926-30.266-52.215-30.266-82.474c0-70.424,57.294-127.718,127.718-127.718    c7.438,0,14.918,0.657,22.248,1.955c18.973,3.329,37.258,11.101,52.878,22.475l8.83-12.125    c-15.665-11.407-33.733-19.56-52.594-23.804V0H102.948v15h40.224v127.265H253.62V15h128.172v97.306    c-5.432-0.627-10.907-0.95-16.362-0.95c-78.695,0-142.718,64.022-142.718,142.718c0,28.667,8.64,56.56,24.554,79.994H15V15h64.086    V0H0v349.068h258.991c19.818,22.239,46.163,37.742,75.077,44.235v114.845h62.724V393.31    C461.706,378.819,508.148,321.293,508.148,254.074z M238.62,15v80.448h-80.448V15H238.62z M158.172,127.265v-16.816h80.448v16.816    H158.172z M381.792,395.843v17.766h-32.724v-17.766c5.433,0.627,10.908,0.949,16.361,0.949    C370.885,396.792,376.361,396.469,381.792,395.843z M349.068,493.148v-64.54h32.724v64.54H349.068z" fill="#248afd" data-original="#000000"/>
		<path style="" d="M476.332,254.074c0-61.151-49.751-110.902-110.902-110.902s-110.901,49.751-110.901,110.902    c0,38.008,19.133,72.947,51.18,93.465l8.088-12.633c-27.719-17.746-44.268-47.964-44.268-80.832    c0-52.881,43.021-95.902,95.901-95.902c52.881,0,95.902,43.021,95.902,95.902s-43.021,95.902-95.902,95.902    c-12.783,0-25.193-2.472-36.884-7.347l-5.773,13.844c13.529,5.643,27.882,8.503,42.657,8.503    C426.581,364.977,476.332,315.226,476.332,254.074z" fill="#248afd" data-original="#000000"/>
		<path style="" d="M71.586,309.299h62.724v-62.725H71.586V309.299z M86.586,261.574h32.724v32.725H86.586V261.574z" fill="#248afd" data-original="#000000"/>
		<rect x="31.816" y="198.396" style="" width="15" height="15.908" fill="#248afd" data-original="#000000"/>
		<rect x="31.816" y="262.028" style="" width="15" height="15.908" fill="#248afd" data-original="#000000"/>
		<polygon style="" points="364.976,71.132 364.976,31.816 325.66,31.816 325.66,46.816 349.976,46.816     349.976,71.132   " fill="#248afd" data-original="#000000"/>
		<path style="" d="M336.009,274.966l29.421,39.359l29.422-39.359c11.358-9.02,17.849-22.369,17.849-36.8    c0-26.064-21.205-47.27-47.271-47.27c-26.064,0-47.27,21.205-47.27,47.27C318.16,252.597,324.65,265.946,336.009,274.966z     M365.43,205.896c17.794,0,32.271,14.476,32.271,32.27c0,10.061-4.658,19.362-12.781,25.522l-0.842,0.639l-18.647,24.945    l-18.646-24.945l-0.842-0.639c-8.123-6.16-12.781-15.462-12.781-25.522C333.16,220.372,347.636,205.896,365.43,205.896z" fill="#248afd" data-original="#000000"/>
		<rect x="182.488" y="262.482" style="" width="15.908" height="15" fill="#248afd" data-original="#000000"/>
		<rect x="285.89" y="246.574" style="" width="15.908" height="15" fill="#248afd" data-original="#000000"/>
		<rect x="429.062" y="246.574" style="" width="15.908" height="15" fill="#248afd" data-original="#000000"/>
	</g>
</g>















</g></svg>
