<?xml version="1.0"?>
<svg xmlns="http://www.w3.org/2000/svg" xmlns:xlink="http://www.w3.org/1999/xlink" xmlns:svgjs="http://svgjs.com/svgjs" version="1.1" width="512" height="512" x="0" y="0" viewBox="0 0 64 64" style="enable-background:new 0 0 512 512" xml:space="preserve" class=""><g><path xmlns="http://www.w3.org/2000/svg" d="m32 12c1.7 0 3-1.3 3-3s-1.3-3-3-3-3 1.3-3 3 1.3 3 3 3zm0-4c.6 0 1 .4 1 1s-.4 1-1 1-1-.4-1-1 .4-1 1-1z" fill="#248afd" data-original="#000000" style="" class=""/><path xmlns="http://www.w3.org/2000/svg" d="m19 45h2v2h-2z" fill="#248afd" data-original="#000000" style="" class=""/><path xmlns="http://www.w3.org/2000/svg" d="m23 45h3v2h-3z" fill="#248afd" data-original="#000000" style="" class=""/><path xmlns="http://www.w3.org/2000/svg" d="m55 43h-2v-6.5c0-1.9-1.6-3.5-3.5-3.5-1.5 0-2.9 1-3.4 2.5l-7.3-2.9c2.7-2.3 4.2-5.6 4.2-9.1v-8.4l1.8-4.5c.1-.2.2-.6.2-1v-2.9c0-1.5-1.1-2.7-2.5-3l-10-1.7c-.3-.1-.7-.1-1 0l-10 1.7c-1.4.3-2.5 1.5-2.5 3v2.9c0 .4.1.8.2 1.1l1.8 4.5v8.4c0 3.5 1.5 6.8 4.2 9.1l-10.2 3.9c-4.2 1.6-7 5.7-7 10.3v15.1h47c1.7 0 3-1.3 3-3v-13c0-1.7-1.3-3-3-3zm-5.5-8c.8 0 1.5.7 1.5 1.5v6.5h-3v-6.5c0-.8.7-1.5 1.5-1.5zm1.5 10v15h-3v-15zm-7.3-8.3-4.6 4-3.1-3.2c-.1-1-.6-1.9-1.3-2.5l.8-.3c.5-.2 1-.4 1.4-.7zm-11.7-.7c1.1 0 2 .9 2 2s-.9 2-2 2-2-.9-2-2 .9-2 2-2zm-2 5.4c1.2.7 2.8.7 4 0v12.1l-2 2-2-2zm-9-34.7c0-.5.4-.9.8-1l10-1.7h.3l10 1.7c.5.1.8.5.8 1v2.9c0 .1 0 .3-.1.4l-1.6 4h-18.5l-1.6-4c-.1-.1-.1-.3-.1-.4zm19.1 9.3c-3.4 4.5-9.8 5.3-14.2 1.9-.7-.6-1.4-1.2-1.9-1.9zm-17.1 7.6v-5.6c4.5 5 12.2 5.3 17.2.8.3-.3.6-.5.8-.8v5.5c0 4.1-2.5 7.8-6.3 9.3l-.9.3c-1.2.5-2.5.5-3.7 0l-.9-.3c-3.7-1.5-6.2-5.2-6.2-9.2zm5.5 11.1.8.3c-.7.6-1.2 1.5-1.3 2.5l-3.1 3.1-4.6-4 6.8-2.7c.5.4 1 .6 1.4.8zm-18.5 12.1c0-3.7 2.3-7.1 5.7-8.4l2.5-1 6.8 5.9 2.9-2.9v14l4 4 4-4v-14l2.9 2.9 6.8-5.9.2.1v5.5h-2c-1.7 0-3 1.3-3 3v13c0 .3.1.7.2 1h-20v-10h-2v10h-9zm33 12.2v-13c0-.6.4-1 1-1h2v15h-2c-.6 0-1-.4-1-1zm13 0c0 .6-.4 1-1 1h-2v-15h2c.6 0 1 .4 1 1z" fill="#248afd" data-original="#000000" style="" class=""/></g></svg>
