<svg width="30" height="30" viewBox="0 0 30 30" fill="none" xmlns="http://www.w3.org/2000/svg">
<path d="M26.6667 5H3.33334C2.89131 5 2.46739 5.17559 2.15483 5.48816C1.84227 5.80072 1.66667 6.22464 1.66667 6.66667V23.3333C1.66667 23.7754 1.84227 24.1993 2.15483 24.5118C2.46739 24.8244 2.89131 25 3.33334 25H26.6667C27.1087 25 27.5326 24.8244 27.8452 24.5118C28.1577 24.1993 28.3333 23.7754 28.3333 23.3333V6.66667C28.3333 6.22464 28.1577 5.80072 27.8452 5.48816C27.5326 5.17559 27.1087 5 26.6667 5ZM25.3833 23.3333H4.71667L10.55 17.3L9.35001 16.1417L3.33334 22.3667V7.93333L13.6917 18.2417C14.0039 18.5521 14.4264 18.7263 14.8667 18.7263C15.307 18.7263 15.7294 18.5521 16.0417 18.2417L26.6667 7.675V22.2583L20.5333 16.125L19.3583 17.3L25.3833 23.3333ZM4.425 6.66667H25.3167L14.8667 17.0583L4.425 6.66667Z" fill="#4178E1"/>
</svg>
