<svg width="70" height="70" viewBox="0 0 70 70" fill="none" xmlns="http://www.w3.org/2000/svg">
<path d="M65.3321 1.16663H4.66785C2.09412 1.16663 0 3.26088 0 5.83448V44.3332C0 44.9772 0.522676 45.4999 1.16662 45.4999H68.8332C69.4772 45.4999 69.9999 44.9772 69.9999 44.3332V5.83448C70 3.26088 67.9059 1.16663 65.3321 1.16663ZM67.6666 43.1666H2.33338V5.83448C2.33338 4.54645 3.38105 3.50001 4.66785 3.50001H65.3321C66.6189 3.50001 67.6666 4.54645 67.6666 5.83448V43.1666Z" fill="#4178E1"/>
<path d="M68.8334 43.1667H1.16662C0.522676 43.1667 0 43.6894 0 44.3334V50.1655C0 52.7392 2.09412 54.8334 4.66785 54.8334H65.3321C67.9059 54.8334 70 52.7392 70 50.1655V44.3334C70 43.6894 69.4773 43.1667 68.8334 43.1667ZM67.6666 50.1656C67.6666 51.4537 66.6189 52.5001 65.3321 52.5001H4.66785C3.38105 52.5001 2.33338 51.4537 2.33338 50.1656V45.5001H67.6668V50.1656H67.6666Z" fill="#4178E1"/>
<path d="M38.5 47.8334H31.5C30.8561 47.8334 30.3334 48.356 30.3334 49C30.3334 49.6439 30.8561 50.1666 31.5 50.1666H38.5C39.1439 50.1666 39.6666 49.6439 39.6666 49C39.6666 48.356 39.1439 47.8334 38.5 47.8334Z" fill="#4178E1"/>
<path d="M64.1666 5.83337H5.83338C5.18943 5.83337 4.66676 6.35605 4.66676 7V44.3334C4.66676 44.9773 5.18943 45.5 5.83338 45.5H64.1668C64.8107 45.5 65.3334 44.9773 65.3334 44.3334V7C65.3334 6.35605 64.8107 5.83337 64.1666 5.83337ZM63 43.1666H7V8.16662H63V43.1666Z" fill="#4178E1"/>
<path d="M50.1666 61.8333H19.8334C17.9037 61.8333 16.3334 63.4036 16.3334 65.3333C16.3334 67.2629 17.9037 68.8333 19.8334 68.8333H50.1667C52.0964 68.8333 53.6667 67.2629 53.6667 65.3333C53.6667 63.4036 52.0963 61.8333 50.1666 61.8333ZM50.1666 66.4999H19.8334C19.1894 66.4999 18.6668 65.9761 18.6668 65.3333C18.6668 64.6904 19.1894 64.1666 19.8334 64.1666H50.1667C50.8107 64.1666 51.3334 64.6904 51.3334 65.3333C51.3334 65.9761 50.8107 66.4999 50.1666 66.4999Z" fill="#4178E1"/>
<path d="M47.8334 61.8334C43.9623 61.8334 42 59.0859 42 53.6667C42 53.0228 41.4773 52.5001 40.8334 52.5001H29.1668C28.5228 52.5001 28.0001 53.0228 28.0001 53.6667C28.0001 59.0859 26.0378 61.8334 22.1668 61.8334C21.5228 61.8334 21.0001 62.356 21.0001 63C21.0001 63.6439 21.5228 64.1666 22.1668 64.1666H47.8334C48.4773 64.1666 49 63.6439 49 63C49 62.356 48.4773 61.8334 47.8334 61.8334ZM27.8495 61.8334C29.2857 60.2421 30.1314 57.8725 30.3018 54.8334H39.6993C39.8684 57.8725 40.7143 60.2421 42.1516 61.8334H27.8495Z" fill="#4178E1"/>
<path d="M55.748 35.5413L52.9318 32.725L54.4986 31.1582C54.7891 30.8677 54.9057 30.4454 54.8054 30.0475C54.705 29.6497 54.4029 29.3347 54.0097 29.2157L42.343 25.7157C41.9312 25.592 41.4868 25.7052 41.1834 26.0086C40.8789 26.3119 40.7669 26.7575 40.8905 27.1682L44.3905 38.8348C44.5084 39.2291 44.8245 39.5313 45.2223 39.6316C45.6189 39.7297 46.0425 39.6152 46.333 39.3248L47.9827 37.674L50.799 40.4915C51.0172 40.7107 51.3147 40.8332 51.6238 40.8332C51.9329 40.8332 52.2304 40.7107 52.4486 40.4915L55.7479 37.1909C56.2041 36.7348 56.2041 35.9975 55.748 35.5413ZM51.6238 38.017L49.0595 35.4515C48.762 35.154 48.3723 35.0057 47.9827 35.0057C47.5918 35.0057 47.2021 35.155 46.9059 35.4502L46.0636 36.2925L43.7477 28.5727L51.4675 30.8886L50.5645 31.7916C50.3159 32.0413 50.1795 32.3727 50.1795 32.725C50.1795 33.0786 50.3171 33.4122 50.5668 33.6595L53.2734 36.3661L51.6238 38.017Z" fill="#4178E1"/>
<path d="M49 10.5H16.3334C15.6894 10.5 15.1668 11.0227 15.1668 11.6666V17.5C15.1668 18.1439 15.6894 18.6666 16.3334 18.6666H49C49.644 18.6666 50.1666 18.1439 50.1666 17.5V11.6666C50.1666 11.0227 49.644 10.5 49 10.5ZM47.8334 16.3334H17.5V12.8334H47.8334V16.3334Z" fill="#4178E1"/>
<path d="M30.3334 23.3334H21C20.3561 23.3334 19.8334 23.856 19.8334 24.5V29.1666C19.8334 29.8106 20.3561 30.3332 21 30.3332H30.3334C30.9773 30.3332 31.5 29.8106 31.5 29.1666V24.5C31.5 23.856 30.9773 23.3334 30.3334 23.3334ZM29.1666 28H22.1666V25.6666H29.1666V28Z" fill="#4178E1"/>
<path d="M49 10.5H16.3334C15.6894 10.5 15.1668 11.0227 15.1668 11.6666V33.8332C15.1668 34.4772 15.6894 34.9999 16.3334 34.9999H44.1071C44.4769 34.9999 44.8234 34.8261 45.0428 34.5297C45.2633 34.2334 45.331 33.8507 45.2248 33.4972L43.7478 28.5727L48.6653 30.0486C49.0189 30.1548 49.4016 30.0871 49.6966 29.8666C49.9929 29.6473 50.1668 29.2996 50.1668 28.9309V11.6666C50.1666 11.0227 49.644 10.5 49 10.5ZM47.8334 27.363L42.3418 25.7157C41.93 25.592 41.4855 25.7052 41.1822 26.0086C40.8777 26.313 40.7657 26.7575 40.8893 27.1694L42.539 32.6668H17.5V12.8334H47.8334V27.363Z" fill="#4178E1"/>
</svg>
